<?xml version="1.0" encoding="utf-8"?>
<!-- Generator: Adobe Illustrator 21.0.0, SVG Export Plug-In . SVG Version: 6.00 Build 0)  -->
<svg version="1.1" xmlns="http://www.w3.org/2000/svg" xmlns:xlink="http://www.w3.org/1999/xlink" x="0px" y="0px"
	 viewBox="0 0 310.7 157.2" style="enable-background:new 0 0 310.7 157.2;" xml:space="preserve">
<style type="text/css">
	.st0{display:none;}
	.st1{display:inline;}
	.st2{display:inline;fill:#F4F4F4;}
	.st3{display:inline;fill:#BF0811;}
	.st4{fill:#BF0811;}
	.st5{fill:#F4F4F4;}
	.st6{display:inline;fill:#EDEDED;}
	.st7{font-family:'Constantia';}
	.st8{font-size:14.8px;}
</style>
<g id="reglas" class="st0">
</g>
<g id="fondo" class="st0">
	<rect x="-237.7" y="-430.8" class="st1" width="797" height="619"/>
</g>
<g id="Logotipo_x5F_v0" class="st0">
	<path class="st2" d="M88.5,73.9c0,0-2.6-0.5-2.7-0.7c0,0-7.2-26.6-7.2-26.6C78.3,46.3,67,48,66.3,48.1c0,0.2-2.6,1.1-2.8,1.4
		c0-0.1-3.7,16.8-3.8,17.2c0,0-3,1.4-3,1.1c-0.1-0.1-0.2-1.1,0-2.3c0.8-4.5,3.2-15.1,3.4-15.6c-0.2-0.1-11.5,2.6-11.8,2.7
		c-0.3,0-2.3,1-2.4,1c0,0,1.7-1.7,1.9-1.9c0.2,0,12.8-5.7,13-5.8c0.4-0.7,6.8-26.7,7.1-27v0.1c0.2,0.2,0.4,2.4,0.4,2.6
		s-0.2,1.8-0.2,1.8l0.1-0.1c0.2-0.8,0.9-1.5,1-1.7C69,21.4,68,17.1,67.9,16c0.2,0,0.3,0,0.5-0.1c0.5,1.8,1,2.9,1.4,3.1
		c0-0.2,0.8-2.7,0.8-2.7s0.8-3.6,0.9-3.9C71.3,12.2,73,16,73,16c0.3,0.7,0.5,1.8,0.8,3.1c0.3,1.6,0.5,2.6,0.7,3.2
		c0,0.2,0.1,1.4,0.2,1.7c0,0.1,5.7,16.6,5.9,17.2c0.2,0,3.1,1.6,3.2,1.7c-0.1,0-1.6,2.6-1.6,2.6c0.1,0.5,4.9,21.4,6.1,27
		C88.4,73.3,88.5,73.8,88.5,73.9z M59.9,55.5c0,0-0.1-0.1-0.2-0.1v0.2C59.7,55.6,59.7,55.6,59.9,55.5L59.9,55.5z M77.4,42
		c0-0.1-7.1-16.8-7.2-17.6c0,0-5.6,19.8-5.6,20.4C64.6,44.8,76.3,42.3,77.4,42z M65.1,32.1 M65.8,29.2 M65.8,33.2 M66.2,47.6
		 M66.2,32.5 M66.1,32.3 M67.3,28.5 M67.7,21.5L67.7,21.5c0.2,0.1,0.3,0.2,0.4,0.2C68.1,21.7,67.7,21.5,67.7,21.5z M68.7,23.8
		 M68.8,26.5 M69,27.1c0,0-0.1-0.1-0.2-0.1C68.8,27,68.9,27,69,27.1z M71.2,17 M71.4,45.1 M72.7,19.4h-0.1 M73.1,21 M73.4,21.9
		 M73.7,24.2 M74.1,25.3 M74.5,26.1 M74.3,27.2 M76,29.6 M77.3,33.4 M77.8,34.4 M77.9,34.8c0.1,0.2,0.1,0.3,0.1,0.3
		C78,35.1,78.1,34.9,77.9,34.8z M80.2,48.3"/>
	<polygon class="st1" points="71.6,24.4 72.4,24.4 73.2,24.9 77,36.9 	"/>
	<polygon class="st1" points="77.4,43.1 77.4,44.1 72.4,45.3 	"/>
	<path class="st3" d="M55.7,107.6c0-0.3-1.4,2.2-1.5,2.7h-0.4c-0.2,0.6-4.4,6.7-4.5,7.2c0,0-0.9,3.1-0.8,3c-0.2,0.1-2,1.4-2.1,1.5
		c-0.4,0.2-5.2,0.8-5.1,0.7c0.2-0.1,2-0.8,2.2-0.9c0.1-0.1,0.7-1.1,0.7-1.1s-3.2,0-3.3-0.2c0.2-0.1,0.3-0.1,0.3-0.2
		c0.1,0-5.7-3.5-5.7-3.5c-0.1-0.1-4.5-4.6-4.5-4.6c-0.4-1-1.1-2.2-2.1-3.7c0-0.1-4.8-11.5-4.8-11.6c0,0,2.1-11.1,2.4-11.2
		c0-0.3,5.2-10.6,5.2-10.7c0.1-0.3,3.9-7,4-7.2c0,0,2.2-1,2.7-0.9c-0.1-0.2,14.9,3.8,15.3,4c0.2-0.5,3.5,5.4,3.5,5.5
		c0,0.1-0.8,11.5-0.8,11.5c0-0.2-0.6-2.5-0.6-3c0,0-2.8-9.5-4.1-10.1c-0.3-0.2-9.7-2.4-10.8-2.4c-0.1,0.2-3.7,4.3-3.7,4.4
		C33.5,83,29,93.1,29,93.5c0.1,1.6,3.3,11.4,3.4,11.5c0.1,0.2,8,11.9,8,11.9c0.2,0.2,3,1.5,3.4,1.5c0-0.1,2.6-1.5,2.7-1.6
		c0-0.1,3.9-4.8,3.9-4.8c0.2,0,1.1-0.3,1.2-0.3C52.6,110.7,55.5,107.5,55.7,107.6z M28.2,92.9 M29.4,89.6 M30.5,82.6 M30.7,102.9
		 M30.7,85.7 M36.9,113.4 M39.1,118.2 M52.8,71.8c0.2,0,0.3-0.1,0.4-0.2h-0.1v-0.1h-0.3V71.8z M53.3,71.9h-0.1v0.2h0.1V71.9z"/>
	<path class="st2" d="M114.9,101.4c0.4,1.5,0.6,5.8,0.6,12.7c-0.1,0.1-11.4,5.2-10.6,7.4c0,0-3.3,1.1-3.4,1.2
		c-0.5,0.4-6.2,0.2-6.8-0.1c-1.9-1.6-4.5-4.6-4.2-3.9c0,0-2.7-4.3-5.2-10.2c-0.1-0.3,0.2-5.7,0.3-5.8c0,0,3.2,8.8,5.1,11.4
		c1.5,2,5.7,5.2,5.7,5.2c0.2-0.1,6.2-0.8,6.6-1.4c0,0,7.2-4.2,7.8-6.4c0,0,0.4-2,0.5-2.1c0.4-0.7-0.3-6.7-0.8-7.6
		c0-0.1-0.5-1.4-0.5-1.4c-0.2-0.3-3.1-4.4-3.2-4.5c-0.3-0.2-1.1-0.4-2.2-0.3c-0.3,0-3.6-0.8-4.1-0.7c-0.5,0-2.6,0.2-3.3-0.1
		c-0.1-0.1,1.3,2.3,3.2,3.2c0,0-6.9-2.6-8.1-4.2c-0.1-0.1-3.9-4-3.9-4.7c0.6,0.4,1.2,0.2,1.6-0.1c0.3-0.4,0.4-0.7,0.2-1.1
		c-0.3-0.6-0.5-1-0.5-1.3c1.5-0.8,1.3-0.7,1.1-1.4c-0.2-0.4,3.9-9.4,4-9.5c0-0.2,2.9-4.8,2.9-4.9c0.7-1,1.4-1.7,2.1-2.2
		c0.7-0.5,4.7,0,4.7,0c1.4,0.7,2.7,2,3.9,3.9c0.4,0.6,4,8.6,3.9,8.8c0,0.1-0.2,0.4-0.2,0.4c-0.1,0,0,6.6-0.3,7.4
		c0,0-2.3-7.4-2.8-8.8c-0.7-2.4-4.7-6.9-5.1-7.1c-0.2,0.1-1-0.4-1.8-0.1c-0.8,0.3-2.5,2.2-2.5,2.2c-0.2-0.3-3.8,8.6-3.9,9.8
		c-2.1,6.1,16.7,6.7,16.9,6.7c0,0.1,0.1,0.1,0.1,0.2c0,0,1.6,2.4,1.6,2.5C114.4,94.8,114.2,99.3,114.9,101.4z M90.7,89.8 M95.5,81.4
		 M95.5,81 M96.1,79.8L96.1,79.8 M111.3,80.3 M111.5,80.5h-0.2l0.2,0.2V80.5z M113.2,103.8 M113.6,105.6
		C113.6,105.6,113.4,105.5,113.6,105.6C113.6,105.7,113.6,105.7,113.6,105.6z"/>
	<path class="st2" d="M150.2,76c-2.8,5.8-3.9,9.4-4.1,9.4c-0.1-0.3,1.3-10.8,1.1-11.1c-0.5-0.6-11-1.1-11.5-1.1
		c-0.2,0.4-1.7,22.8-1.8,24.2c-0.1,5.5-2.1,33.9-2.2,33c-0.1-1.2-2.1-28.3-2.2-33c0-0.2-4.6-23.7-4.6-24c-1.4-0.3-7.2,0.9-7.5,0.8
		c0,0,1.7,10.6,1.8,11.1l0,0c0,0-4.8-9.5-4.8-9.7c-0.2-0.5,0.3-8.1,0.4-8.2c0,0,5.8,1.3,11,2.2c2,0.3,9.1,0.5,9.3,0.5
		c0.2,0,16.1-2.6,15.9-2.6C151.3,68.1,150.3,75.9,150.2,76z M119.3,67.9 M118.5,70.5 M122.8,70.4 M129.9,79.9h0.1
		C130,79.9,129.8,79.8,129.9,79.9z M130.3,82.3 M130.3,83v0.3 M143.9,70.5c0,0,0.1,0.4,0.1,0.4C144,70.9,144,70.6,143.9,70.5z"/>
	<g id="XMLID_4_" class="st1">
		<g>
			<path class="st4" d="M195.8,61.9l-9.2-8.3l-0.9,0.6l-4-0.3l-4.5,1.5l3.9-3.2l4.9-0.9c0.4-0.1,0.9-0.1,1.3,0.1l4.4,1.3l2.4,2.6
				l-2.7-0.9l3.6,3.7c0.2,0.3,0.6,0.4,1,0.4l8.6-0.4l-2.6,2.8c-0.6,0.6-1.3,1-2.2,1l-3,0.1C196.4,62.3,196.1,62.1,195.8,61.9z"/>
		</g>
	</g>
	<polygon class="st3" points="192.6,57.3 191,55.6 189.3,53.9 188.9,53.9 190.5,55.8 191.5,56.7 	"/>
	<polygon class="st3" points="198.1,58.8 199.7,59.1 200.9,58.8 201.8,58.8 200.7,59.7 200,59.8 	"/>
	<path class="st3" d="M33.8,29L36,13.1l0-1.3l-1.8,3.6l-0.5-2.2l-0.1-0.2l-1.3,3l-1.2,0.2l-0.4,7.3l-1.2-7.4l-1.8-1.4L26,16l1.1,1.1
		l2,12.2l-0.4,1.6l1,7.7L29.5,60l-1.2,7.7l1.9-0.9l7.4,1.8l10.8,3.8l8.8,3.8l-0.2-7.8L56.9,66l0.7-3.8l-0.2-2.7l0-1l0.5-3.7
		l-0.6,1.1l-1.1,2.5L55.4,61l-0.3,3c0,0-1.3,2.6-1.3,2.7c0,0.1-2,2.4-2,2.4l-13.5-5.4l-2.5-2.5l-1.1-2.5l-0.8-22.8l0.3-4.5L33.8,29z
		"/>
	<path class="st2" d="M88.4,130.5c0,0-2.6-0.5-2.7-0.7c0,0-7.2-26.6-7.2-26.6c-0.3-0.2-11.6,1.5-12.2,1.6c0,0.2-2.6,1.1-2.8,1.4
		c0-0.1-3.7,16.8-3.8,17.2c0,0-3,1.4-3,1.1c-0.1-0.1-0.2-1.1,0-2.3c0.8-4.5,3.2-15.1,3.4-15.6c-0.2-0.1-11.5,2.6-11.8,2.7
		c-0.3,0-2.3,1-2.4,1c0,0,1.7-1.7,1.9-1.9c0.2,0,12.8-5.7,13-5.8c0.4-0.7,6.8-26.7,7.1-27v0.1c0.2,0.2,0.4,2.4,0.4,2.6
		c0.1,0.1-0.2,1.8-0.2,1.8l0.1-0.1c0.2-0.8,0.9-1.5,1-1.7c-0.2-0.2-1.2-4.4-1.3-5.5c0.2,0,0.3,0,0.5-0.1c0.5,1.8,1,2.9,1.4,3.1
		c0-0.2,0.8-2.7,0.8-2.7s0.8-3.6,0.9-3.9c-0.2-0.2,1.5,3.5,1.5,3.5c0.3,0.7,0.5,1.8,0.8,3.1c0.3,1.6,0.5,2.6,0.7,3.2
		c0,0.2,0.1,1.4,0.2,1.7c0,0.1,5.7,16.6,5.9,17.2c0.2,0,3.1,1.6,3.2,1.7c-0.1,0-1.6,2.6-1.6,2.6c0.1,0.5,4.9,21.4,6.1,27
		C88.3,130,88.4,130.5,88.4,130.5z M59.7,112.2c0,0-0.1-0.1-0.2-0.1v0.2C59.6,112.3,59.6,112.2,59.7,112.2L59.7,112.2z M77.2,98.6
		c0-0.1-7.1-16.8-7.2-17.6c0,0-5.6,19.8-5.6,20.4C64.5,101.5,76.2,99,77.2,98.6z M64.9,88.8 M65.6,85.8 M65.6,89.8 M66.1,104.3
		 M66.1,89.2 M66,89 M67.1,85.1 M67.5,78.2L67.5,78.2c0.2,0.1,0.3,0.2,0.4,0.2C68,78.4,67.6,78.1,67.5,78.2z M68.5,80.5 M68.6,83.2
		 M68.8,83.7c0,0-0.1-0.1-0.2-0.1C68.6,83.6,68.7,83.6,68.8,83.7z M71,73.7 M71.2,101.8 M72.5,76.1h-0.1 M72.9,77.6 M73.3,78.6
		 M73.6,80.9 M73.9,81.9 M74.3,82.7 M74.2,83.8 M75.9,86.2 M77.1,90 M77.7,91 M77.8,91.5c0.1,0.2,0.1,0.3,0.1,0.3
		C77.9,91.8,77.9,91.6,77.8,91.5z M80,104.9"/>
	<path class="st2" d="M179.9,64.9l0.7,3.8c0,0,1.7,4,1.7,4.2s5,7.7,5,7.7l3.6,5l3,4.1l2.3,4.9l1.1,3.5c0,0,0.3-6,0.4-7.3
		c0.1-1.4,0-7.8,0-7.8l-0.5-3l-0.2-3.1l-0.8-5.1l1.1-1l0.8,2.6l0.7-3.5h0.5l0.5,1.4l1.1-0.9l0.5-4.2l0.8,2.6l-0.4,4.8
		c0,0-1,6.2-1,6.6c0,0.3,0.4,3.2,0.4,3.2l0.3,40.6l0.1,2.9l-1.7-1.2l-4.4-22.1l-3.4-7.5l-3.2-4.6l-2.4-2.7l-2.5-3.2l0.1,4.2l0.1,1.6
		l-0.9,4.4l-0.9,7.7l0,14.7l0.3,2.5c0,0-2.6-2.3-2.8-2.8c-0.2-0.5-0.1-15.9-0.1-15.9l0.4-5.9l-0.3-13.8l-0.2-4.8l-1.2-3.7l-0.4-2.9
		l1,0.1v-2.4l-0.4-1.7L179.9,64.9z"/>
	<path class="st2" d="M202.9,120.7l6.9-2.7c0,0,2,0.2,3,0.5c1,0.2,10.5,5.1,10.5,5.1l-1.2-2.1l4.2,3.7l1.4,1.7l0.8-0.6l-0.8-2.1
		l2.8,3.5l-1.7-14.8l0.4-6l0.7-5.1l-2.2,5.9l-0.4,1.9l-2.5,8.7l-2.1,0.7l-2.1-0.7l-8.2-5.8l0.4-20l-0.4-2.2l0.9,1l2.2-1.4l2.4,1.1
		l3.1,8.4l0.8,3.2l1.6,1.1l-0.3-8.1l-0.6-10l-1.3-0.6l-0.6,2l-5.9-0.2l-1.7-1.2l0.9-8.9l0.5-1.3l7.6-0.4l2.8,1l2.1,11.4l1.8,2.6
		l0.9-14.6l0.8-5.6l-10,1L209,68l-7-1.8l-0.7,1.4l5.3,4.2l2.2,13.6l0.5,16.9l-0.6,1.4l0.7,5.2l0.8-3.1c0,0,0.5,7,0.3,7.5
		c-0.2,0.5-4.9,1.3-4.9,1.3l-2.7,2.9V120.7z"/>
	<polygon class="st2" points="225,135.6 237.9,128.9 242,126 239.3,131.1 245.8,124 256.4,114.9 259.9,103.2 262.4,87.7 262.2,82.8 
		262.9,81.8 262.2,80.1 261.7,76.6 260.2,76.9 254.8,75.4 251,73.3 246.4,71.3 241.4,70.1 237.8,68.3 233.5,68.3 238.7,70.7 
		230.9,71.9 233,74.3 235.5,79.2 237.4,85.9 238.1,96.8 237.9,100.1 239.4,102.4 238.8,115.1 238.7,118.8 238.7,123.4 240.6,121.9 
		241.3,112.8 242,99.5 242.5,94.2 242.6,86.3 242.6,76.3 243.2,75.4 253.5,79.6 255,86 255.6,93.5 255.5,98.1 255.4,107.1 
		253.1,111.4 249.3,117.2 243.2,123.3 236.1,127.8 225.8,134.1 	"/>
	<path class="st2" d="M177.8,130.3c0,0-2.6-0.5-2.7-0.7c0,0-7.2-26.6-7.2-26.6c-0.3-0.2-11.6,1.5-12.2,1.6c0,0.2-2.6,1.1-2.8,1.4
		c0-0.1-3.7,16.8-3.8,17.2c0,0-3,1.4-3,1.1c-0.1-0.1-0.2-1.1,0-2.3c0.8-4.5,3.2-15.1,3.4-15.6c-0.2-0.1-11.5,2.6-11.8,2.7
		c-0.3,0-2.3,1-2.4,1c0,0,1.7-1.7,1.9-1.9c0.2,0,12.8-5.7,13-5.8c0.4-0.7,6.8-26.7,7.1-27v0.1c0.2,0.2,0.4,2.4,0.4,2.6
		c0.1,0.1-0.2,1.8-0.2,1.8l0.1-0.1c0.2-0.8,0.9-1.5,1-1.7c-0.2-0.2-1.2-4.4-1.3-5.5c0.2,0,0.3,0,0.5-0.1c0.5,1.8,1,2.9,1.4,3.1
		c0-0.2,0.8-2.7,0.8-2.7s0.8-3.6,0.9-3.9c-0.2-0.2,1.5,3.5,1.5,3.5c0.3,0.7,0.5,1.8,0.8,3.1c0.3,1.6,0.5,2.6,0.7,3.2
		c0,0.2,0.1,1.4,0.2,1.7c0,0.1,5.7,16.6,5.9,17.2c0.2,0,3.1,1.6,3.2,1.7c-0.1,0-1.6,2.6-1.6,2.6c0.1,0.5,4.9,21.4,6.1,27
		C177.7,129.8,177.8,130.3,177.8,130.3z M149.2,112c0,0-0.1-0.1-0.2-0.1v0.2C149,112.1,149.1,112,149.2,112L149.2,112z M166.7,98.4
		c0-0.1-7.1-16.8-7.2-17.6c0,0-5.6,19.8-5.6,20.4C153.9,101.3,165.6,98.8,166.7,98.4z M154.4,88.6 M155.1,85.6 M155.1,89.6
		 M155.5,104.1 M155.5,89 M155.4,88.8 M156.6,84.9 M157,78L157,78c0.2,0.1,0.3,0.2,0.4,0.2C157.4,78.2,157,77.9,157,78z M158,80.3
		 M158.1,83 M158.3,83.5c0,0-0.1-0.1-0.2-0.1C158.1,83.4,158.2,83.4,158.3,83.5z M160.5,73.5 M160.7,101.6 M162,75.9h-0.1
		 M162.4,77.4 M162.7,78.4 M163,80.7 M163.4,81.7 M163.8,82.5 M163.7,83.6 M165.4,86 M166.6,89.8 M167.2,90.8 M167.3,91.3
		c0.1,0.2,0.1,0.3,0.1,0.3C167.4,91.6,167.4,91.4,167.3,91.3z M169.5,104.7"/>
	<polygon class="st1" points="161.1,80.4 161.9,80.4 162.6,80.9 166.4,92.9 	"/>
	<polygon class="st1" points="166.9,99.1 166.9,100.2 161.9,101.3 	"/>
	<path class="st2" d="M293.7,130.8c0,0-2.6-0.5-2.7-0.7c0,0-7.2-26.6-7.2-26.6c-0.3-0.2-11.6,1.5-12.2,1.6c0,0.2-2.6,1.1-2.8,1.4
		c0-0.1-3.7,16.8-3.8,17.2c0,0-3,1.4-3,1.1c-0.1-0.1-0.2-1.1,0-2.3c0.8-4.5,3.2-15.1,3.4-15.6c-0.2-0.1-11.5,2.6-11.8,2.7
		c-0.3,0-2.3,1-2.4,1c0,0,1.7-1.7,1.9-1.9c0.2,0,12.8-5.7,13-5.8c0.4-0.7,6.8-26.7,7.1-27v0.1c0.2,0.2,0.4,2.4,0.4,2.6
		c0.1,0.1-0.2,1.8-0.2,1.8l0.1-0.1c0.2-0.8,0.9-1.5,1-1.7c-0.2-0.2-1.2-4.4-1.3-5.5c0.2,0,0.3,0,0.5-0.1c0.5,1.8,1,2.9,1.4,3.1
		c0-0.2,0.8-2.7,0.8-2.7s0.8-3.6,0.9-3.9c-0.2-0.2,1.5,3.5,1.5,3.5c0.3,0.7,0.5,1.8,0.8,3.1c0.3,1.6,0.5,2.6,0.7,3.2
		c0,0.2,0.1,1.4,0.2,1.7c0,0.1,5.7,16.6,5.9,17.2c0.2,0,3.1,1.6,3.2,1.7c-0.1,0-1.6,2.6-1.6,2.6c0.1,0.5,4.9,21.4,6.1,27
		C293.6,130.3,293.7,130.8,293.7,130.8z M265,112.5c0,0-0.1-0.1-0.2-0.1v0.2C264.9,112.6,264.9,112.6,265,112.5L265,112.5z
		 M282.6,99c0-0.1-7.1-16.8-7.2-17.6c0,0-5.6,19.8-5.6,20.4C269.8,101.8,281.5,99.3,282.6,99z M270.2,89.1 M271,86.2 M271,90.2
		 M271.4,104.6 M271.4,89.5 M271.3,89.3 M272.5,85.5 M272.9,78.5L272.9,78.5c0.2,0.1,0.3,0.2,0.4,0.2
		C273.3,78.7,272.9,78.5,272.9,78.5z M273.8,80.8 M273.9,83.5 M274.1,84c0,0-0.1-0.1-0.2-0.1C274,84,274,84,274.1,84z M276.3,74
		 M276.5,102.1 M277.8,76.4h-0.1 M278.2,78 M278.6,78.9 M278.9,81.2 M279.2,82.2 M279.6,83.1 M279.5,84.1 M281.2,86.5 M282.5,90.4
		 M283,91.4 M283.1,91.8c0.1,0.2,0.1,0.3,0.1,0.3C283.2,92.1,283.2,91.9,283.1,91.8z M285.3,105.2"/>
	<polygon class="st1" points="276.9,81 277.7,81 278.5,81.5 282.3,93.5 	"/>
	<polygon class="st1" points="282.7,99.7 282.7,100.8 277.7,101.9 	"/>
	<polygon class="st1" points="71.4,81 72.2,81 73,81.5 76.8,93.5 	"/>
	<polygon class="st1" points="77.2,99.7 77.2,100.8 72.2,101.9 	"/>
	<path class="st1" d="M208.8,66.4c0.5,0.2,1.6,1.5,1.6,1.5s0,2.9,0.1,3.2c0.1,0.3,0.8,7.6,0.8,7.6s-1,4.8-1.3,4.3
		c-0.2-0.4,0.7-5.7,0.2-6.6C209.7,75.4,208.8,66.4,208.8,66.4z"/>
</g>
<g id="original" class="st0">
</g>
<g id="Logotipo_x5F_blanco">
	<g id="rasgos">
	</g>
</g>
<g id="slogan" class="st0">
</g>
<g id="fondo_x5F_blanco" class="st0">
	<rect x="-14" class="st6" width="340.7" height="175.2"/>
</g>
<g id="Logotipo_x5F_negro">
	<path d="M111,99.8c0.4,1.5,0.6,5.8,0.6,12.7c-0.1,0.1-13.8,8.5-13.9,8.6c-0.5,0.4-6.2,0.2-6.8-0.1c-1.9-1.6-4.5-4.6-4.2-3.9
		c0,0-2.7-4.3-5.2-10.2c-0.1-0.3,0.2-5.7,0.3-5.8c0,0,3.2,8.8,5.1,11.4c1.5,2,5.7,5.2,5.7,5.2c0.2-0.1,6.2-0.8,6.6-1.4
		c0,0,7.2-4.2,7.8-6.4c0,0,0.4-2,0.5-2.1c0.4-0.7-0.3-6.7-0.8-7.6c0-0.1-0.5-1.4-0.5-1.4c-0.2-0.3-3.1-4.4-3.2-4.5
		c-0.3-0.2-5.8-1.1-6.3-1.1c-0.5,0-2.6,0.2-3.3-0.1c-0.1-0.1,1.3,2.3,3.2,3.2c0,0-6.9-2.6-8.1-4.2c-0.1-0.1-3.9-4-3.9-4.7
		c0.6,0.4,6.2-13.2,6.4-13.3c0-0.2,2.9-4.8,2.9-4.9c0.7-1,1.4-1.7,2.1-2.2s4.7,0,4.7,0c1.4,0.7,2.7,2,3.9,3.9c0.4,0.6,4,8.6,3.9,8.8
		c0,0.1-0.2,7-0.5,7.8c0,0-2.3-7.4-2.8-8.8c-0.7-2.4-4.7-6.9-5.1-7.1c-0.2,0.1-1-0.4-1.8-0.1c-0.8,0.3-2.5,2.2-2.5,2.2
		c-0.2-0.3-3.8,8.6-3.9,9.8c-2.1,6.1,16.7,6.7,16.9,6.7c0,0.1,0.1,0.1,0.1,0.2c0,0,1.6,2.4,1.6,2.5C110.6,93.1,110.4,97.6,111,99.8z
		 M86.8,88.2 M91.6,79.8 M91.6,79.4 M92.2,78.2L92.2,78.2 M107.5,78.6 M107.7,78.8h-0.2l0.2,0.2V78.8z M109.3,102.2 M109.7,103.9
		C109.7,103.9,109.5,103.8,109.7,103.9C109.7,104,109.7,104,109.7,103.9z"/>
	<path d="M146.4,74.3c-2.8,5.8-3.9,9.4-4.1,9.4c-0.1-0.3,1.3-10.8,1.1-11.1c-0.5-0.6-11-1.1-11.5-1.1c-0.2,0.4-1.7,22.8-1.8,24.2
		c-0.1,5.5-2.1,33.9-2.2,33c-0.1-1.2-2.1-28.3-2.2-33c0-0.2-4.6-23.7-4.6-24c-1.4-0.3-7.2,0.9-7.5,0.8c0,0,1.7,10.6,1.8,11.1l0,0
		c0,0-4.8-9.5-4.8-9.7c-0.2-0.5,0.3-8.1,0.4-8.2c0,0,5.8,1.3,11,2.2c2,0.3,9.1,0.5,9.3,0.5c0.2,0,16.1-2.6,15.9-2.6
		C147.4,66.4,146.4,74.2,146.4,74.3z M115.4,66.3 M114.6,68.8 M118.9,68.7 M126,78.2h0.1C126.2,78.2,126,78.1,126,78.2z M126.4,80.6
		 M126.4,81.3v0.3 M140,68.8c0,0,0.1,0.4,0.1,0.4C140.1,69.2,140.1,68.9,140,68.8z"/>
	<g id="XMLID_6_">
		<g>
			<path class="st4" d="M200.6,56.6l-2.6,2.8c-0.6,0.6-1.3,1-2.2,1l-3.1,0.2c-0.3,0-0.6-0.1-0.8-0.3l-9.2-8.3l-0.9,0.6l-4-0.3
				l-4.5,1.5l3.9-3.2l4.9-0.9c0.4-0.1,0.9-0.1,1.3,0.1l4.4,1.3l2.4,2.6l-2.7-0.9l3.5,3.7c0.2,0.3,0.6,0.4,1,0.4L200.6,56.6z"/>
		</g>
	</g>
	<polygon class="st4" points="188.8,55.7 187.2,54 185.4,52.3 185,52.2 186.6,54.2 187.6,55.1 	"/>
	<polygon class="st4" points="194.2,57.2 195.9,57.5 197.1,57.2 198,57.2 196.8,58 196.1,58.1 	"/>
	<path d="M84.5,128.8c0,0-2.6-0.5-2.7-0.7c0,0-7.2-26.6-7.2-26.6c-0.3-0.2-11.6,1.5-12.2,1.6c0,0.2-2.6,1.1-2.8,1.4
		c0-0.1-3.7,16.8-3.8,17.2c0,0-3,1.4-3,1.1c-0.1-0.1,3.2-17.4,3.4-17.9c-0.2-0.1-11.5,2.6-11.8,2.7c-0.3,0-2.3,1-2.4,1
		c0,0,1.7-1.7,1.9-1.9c0.2,0,12.8-5.7,13-5.8c0.4-0.7,7.1-28.7,7.1-29.9c0.2,0,0.3,0,0.5-0.1c0.5,1.8,1,2.9,1.4,3.1
		c0-0.2,1.7-6.3,1.7-6.6c-0.2-0.2,8.8,28.1,9.1,28.7c0.2,0,3.1,1.6,3.2,1.7c-0.1,0-1.6,2.6-1.6,2.6C78.3,101,84.5,128.8,84.5,128.8z
		 M55.8,110.5c0,0-0.1-0.1-0.2-0.1v0.2C55.7,110.6,55.7,110.6,55.8,110.5L55.8,110.5z M73.4,97c0-0.1-7.1-16.8-7.2-17.6
		c0,0-5.6,19.8-5.6,20.4C60.6,99.8,72.3,97.3,73.4,97z M61,87.1 M61.8,84.2 M61.8,88.2 M62.2,102.6 M62.2,87.5 M62.1,87.3
		 M63.3,83.5 M63.7,76.5L63.7,76.5c0.2,0.1,0.3,0.2,0.4,0.2C64.1,76.7,63.7,76.5,63.7,76.5z M64.6,78.8 M64.7,81.5 M64.9,82
		c0,0-0.1-0.1-0.2-0.1C64.8,81.9,64.8,82,64.9,82z M67.2,72 M67.4,100.1 M68.7,74.4h-0.1 M69.1,76 M69.4,76.9 M69.7,79.2 M70,80.2
		 M70.5,81.1 M70.3,82.1 M72,84.5 M73.3,88.4 M73.8,89.4 M73.9,89.8c0.1,0.2,0.1,0.3,0.1,0.3C74,90.1,74,89.9,73.9,89.8z
		 M76.1,103.2"/>
	<path d="M176.8,66c0,0,1.7,4,1.7,4.2S190,87.1,190,87.1l2.3,4.9l1.1,3.5l-0.2-21.3l-0.8-5.1l2.6-2h0.5l0.5,1.4l1.1-0.9l0.5-4.2
		l0.8,2.6c0,0-1.4,11-1.5,11.4c0,0.3,0.9,46.7,0.9,46.7l-1.7-1.2l-4.4-22.1l-3.4-7.5L179.5,81l-0.5,36.9c0,0-2.6-2.3-2.8-2.8
		S176,74.6,176,74.6l-0.6-8.9l-0.4-1.7L176.8,66z"/>
	<path d="M199,118l6.9-2.7l16.5,7.1l1.4,1.7l2.8,0.8L226,99l-5.1,16.6l-2.1,0.7l-2.1-0.7l-8.2-4.9l0.2-22.3l2.8-1.3l2.4,1.1
		l3.9,11.6l1.6,1.1l-0.9-18.2l-1.3-0.6l-0.6,2l-5.9-0.2l-1.7-1.2l0.9-8.9l0.5-1.3l7.6-0.4l2.8,1l2.1,11.4l1.8,2.6l1.7-20.2l-10,1
		l-11.5-2.4l-7-1.8l4.6,5.6l2.2,13.6c0,0,0.3,27.8,0.1,28.3s-6,3.9-6,3.9V118z"/>
	<polygon points="221.2,133.9 234.1,127.2 238.2,124.4 235.4,129.5 252.5,113.2 256.1,101.5 258.6,86 256.3,75.3 250.9,73.7 
		247.1,71.7 242.5,69.7 237.5,68.4 233.9,66.6 229.7,66.6 234.8,69.1 227,70.2 229.2,72.6 231.6,77.5 233.5,84.2 234.1,98.4 
		235.5,100.7 234.8,121.7 236.7,120.2 239.3,73.7 249.6,78 251.2,84.3 251.6,105.5 249.3,109.7 245.4,115.6 239.3,121.6 
		221.9,132.4 	"/>
	<path d="M174,128.6c0,0-2.6-0.5-2.7-0.7c0,0-7.2-26.6-7.2-26.6c-0.3-0.2-11.6,1.5-12.2,1.6c0,0.2-2.6,1.1-2.8,1.4
		c0-0.1-3.7,16.8-3.8,17.2c0,0-3,1.4-3,1.1c-0.1-0.1,3.2-17.4,3.4-17.9c-0.2-0.1-11.5,2.6-11.8,2.7c-0.3,0-2.3,1-2.4,1
		c0,0,1.7-1.7,1.9-1.9c0.2,0,12.8-5.7,13-5.8c0.4-0.7,7.1-28.7,7.1-29.9c0.2,0,0.3,0,0.5-0.1c0.5,1.8,1,2.9,1.4,3.1
		c0-0.2,1.7-6.3,1.7-6.6c-0.2-0.2,8.8,28.1,9.1,28.7c0.2,0,3.1,1.6,3.2,1.7c-0.1,0-1.6,2.6-1.6,2.6C167.7,100.8,174,128.6,174,128.6
		z M145.3,110.3c0,0-0.1-0.1-0.2-0.1v0.2C145.2,110.4,145.2,110.4,145.3,110.3L145.3,110.3z M162.8,96.7c0-0.1-7.1-16.8-7.2-17.6
		c0,0-5.6,19.8-5.6,20.4C150.1,99.6,161.8,97.1,162.8,96.7z M150.5,86.9 M151.2,84 M151.2,88 M151.7,102.4 M151.7,87.3 M151.6,87.1
		 M152.7,83.3 M153.6,76.5 M154.1,78.6 M154.2,81.3 M154.4,81.8c0,0-0.1-0.1-0.2-0.1C154.2,81.7,154.3,81.8,154.4,81.8z M156.6,71.8
		 M156.8,99.9 M158.1,74.2H158 M158.5,75.8 M158.9,76.7 M159.2,79 M159.5,80 M159.9,80.9 M159.8,81.9 M161.5,84.3 M162.8,88.2
		 M163.3,89.2 M163.4,89.6c0.1,0.2,0.1,0.3,0.1,0.3C163.5,89.9,163.5,89.7,163.4,89.6z M165.6,103"/>
	<path d="M289.8,129.2c0,0-2.6-0.5-2.7-0.7c0,0-7.2-26.6-7.2-26.6c-0.3-0.2-11.6,1.5-12.2,1.6c0,0.2-2.6,1.1-2.8,1.4
		c0-0.1-3.7,16.8-3.8,17.2c0,0-3,1.4-3,1.1c-0.1-0.1,3.2-17.4,3.4-17.9c-0.2-0.1-11.5,2.6-11.8,2.7c-0.3,0-2.3,1-2.4,1
		c0,0,1.7-1.7,1.9-1.9c0.2,0,12.8-5.7,13-5.8c0.4-0.7,7.1-28.7,7.1-29.9c0.2,0,0.3,0,0.5-0.1c0.5,1.8,1,2.9,1.4,3.1
		c0-0.2,1.7-6.3,1.7-6.6c-0.2-0.2,8.8,28.1,9.1,28.7c0.2,0,3.1,1.6,3.2,1.7c-0.1,0-1.6,2.6-1.6,2.6
		C283.6,101.4,289.8,129.2,289.8,129.2z M261.2,110.9c0,0-0.1-0.1-0.2-0.1v0.2C261,111,261,110.9,261.2,110.9L261.2,110.9z
		 M278.7,97.3c0-0.1-7.1-16.8-7.2-17.6c0,0-5.6,19.8-5.6,20.4C265.9,100.2,277.6,97.7,278.7,97.3z M266.4,87.5 M267.1,84.6
		 M267.1,88.5 M267.5,103 M267.5,87.9 M267.4,87.7 M268.6,83.8 M269,76.9L269,76.9c0.2,0.1,0.3,0.2,0.4,0.2
		C269.4,77.1,269,76.8,269,76.9z M270,79.2 M270.1,81.9 M270.3,82.4c0,0-0.1-0.1-0.2-0.1C270.1,82.3,270.2,82.3,270.3,82.4z
		 M272.5,72.4 M272.7,100.5 M274,74.8h-0.1 M274.4,76.3 M274.7,77.3 M275,79.6 M275.3,80.6 M275.8,81.4 M275.6,82.5 M277.3,84.9
		 M278.6,88.7 M279.1,89.7 M279.2,90.2c0.1,0.2,0.1,0.3,0.1,0.3C279.3,90.5,279.4,90.3,279.2,90.2z M281.5,103.6"/>
	<g id="XMLID_2_">
		<g>
			<path d="M63.8,22.9C63.8,22.9,63.8,22.9,63.8,22.9l-0.2-0.1C63.7,22.8,63.8,22.9,63.8,22.9z M74,36.4c0-0.1,0-0.2-0.1-0.3
				C74,36.3,74,36.4,74,36.4z M64,23c0,0-0.1-0.1-0.2-0.1C63.9,23,64,23,64,23z M84.5,75.2c0,0-2.6-0.5-2.7-0.7
				c0,0-7.2-26.6-7.2-26.6c-0.3-0.2-11.6,1.5-12.3,1.6c0,0.2-2.6,1-2.8,1.4c0,0.1-3.7,16.8-3.8,17.2c0,0-1.3,0.6-2.2,0.9l0.2-5.3
				c1-5.1,2.3-12.1,2.4-12.4c-0.2-0.1-11.5,2.6-11.8,2.7c-0.3,0-2.3,1-2.4,1c0,0,1.7-1.7,1.9-1.9c0.3,0,12.8-5.7,13-5.8
				c0.4-0.7,7.1-28.7,7.1-29.9c0.2,0,0.3,0,0.5-0.1c0.5,1.8,1,2.9,1.4,3.1c0-0.2,1.6-6.3,1.7-6.5c0,0.5,8.8,28.1,9.1,28.7
				c0.2,0,3.1,1.6,3.2,1.7c-0.1,0-1.6,2.6-1.6,2.7C78.3,47.3,84.5,75.1,84.5,75.2z M60.6,46.1c0,0,11.7-2.5,12.8-2.8
				c0-0.2-7.1-16.8-7.2-17.5C66.2,25.7,60.6,45.6,60.6,46.1z M64.9,28.4c0,0-0.1-0.1-0.2-0.1C64.8,28.3,64.8,28.3,64.9,28.4z
				 M55.7,56.9L55.7,56.9c0.1,0,0-0.1-0.1-0.1V57C55.7,56.9,55.7,56.9,55.7,56.9z"/>
			<path d="M63.8,22.8C63.8,22.9,63.8,22.9,63.8,22.8c0,0-0.1,0-0.1,0H63.8z"/>
			<path d="M54,53.2l-0.3,10.5c-0.6,3-1,5.4-1,5.4c0,0.1,0.4,0,0.8-0.2l-0.1,5.7c0,0-3.2-5.9-3.5-5.5c-0.1,0-1.2-0.3-2.7-0.8
				l0.4-1.1l0.2,0.1c0,0,1.9-2.3,2-2.4c0-0.1,2.4-8.3,2.4-8.3L54,53.2z"/>
			<path d="M53.8,63.7l-0.2,5.3c-0.5,0.2-0.8,0.3-0.8,0.2C52.7,69.1,53.2,66.7,53.8,63.7z"/>
			<path d="M53.5,74.6l-5.2-2.3l-3.6-1.6L33.8,67l-2-0.5c0.1-0.2,0.2-0.4,0.2-0.4c0,0,2.2-1,2.7-0.9c-0.1-0.2,8.2,2,12.6,3.2
				c1.5,0.4,2.6,0.7,2.7,0.8C50.2,68.7,53.5,74.6,53.5,74.6z M49.4,70.4v-0.2h-0.1v0.2H49.4z M49.3,69.9h-0.1v-0.1h-0.3v0.4
				C49.1,70.1,49.2,70,49.3,69.9z"/>
			<path d="M48.2,72.4l5.2,2.3c0,0.1-0.8,11.5-0.8,11.5c0-0.2-0.6-2.5-0.6-3c0,0-2.9-9.6-4.1-10.1L48.2,72.4z"/>
			<path d="M51.8,106C51.8,105.9,51.9,105.9,51.8,106C51.9,105.9,51.8,105.9,51.8,106z"/>
			<path d="M51.8,106c-0.3,0.3-1.8,2.7-1.8,2.7c-0.2,0.6-5.3,10.1-5.3,10.2c-0.2,0.1-2,1.4-2.1,1.5c-0.4,0.2-5.2,0.8-5.1,0.7
				c0.2-0.1,2-0.8,2.2-0.9c0.1-0.1,0.7-1.1,0.7-1.1s-2.9-0.4-2.9-0.4c0-0.1-5.6-3.5-5.6-3.5c-0.1-0.1-4.5-4.6-4.5-4.6
				c-0.5-1-1.1-2.2-2.1-3.7c0-0.1-4.9-11.5-4.8-11.6c0,0,2.1-11.1,2.4-11.2c0-0.4,5.2-10.6,5.2-10.7c0.1-0.2,3-5.3,3.8-6.8l2,0.5
				l10.8,3.8l3.6,1.6L48,73c-0.3-0.2-9.7-2.4-10.8-2.4c-0.1,0.2-3.7,4.3-3.7,4.4c-3.8,6.4-8.2,16.4-8.2,16.8
				c0.1,1.6,3.3,11.4,3.4,11.5c0.1,0.2,8,11.9,8,11.9c0.2,0.2,3,1.5,3.4,1.5c0-0.1,2.6-1.5,2.7-1.6c0-0.1,3.9-4.8,3.9-4.8
				C46.7,110.3,51.2,106.3,51.8,106z"/>
			<rect x="49.3" y="70.2" width="0.1" height="0.2"/>
			<path d="M49.2,69.9h0.1c-0.1,0.1-0.2,0.2-0.4,0.2v-0.4h0.3V69.9z"/>
			<path d="M47.7,67.3l-0.4,1.1c-4.4-1.2-12.7-3.4-12.6-3.2c-0.5-0.1-2.6,0.9-2.7,0.9c0,0-0.1,0.2-0.2,0.4l-5.4-1.3l-1.9,0.9
				l1.2-7.7l0.3-21.6l-0.7-9.2l-2.1-12.2l-1-1.1l1.7-1.2l1.8,1.4l1.6,0.1l1.2-0.2l1.3-3l0.1,0.2l0.5,2.1l1.8-3.6l0,1.3L30,27.4
				l0.1,6.8L30.9,57l1.1,2.5l2.5,2.5L47.7,67.3z"/>
		</g>
	</g>
	<text transform="matrix(1 0 0 1 175.8055 145.5094)" class="st4 st7 st8">Historia de locura</text>
</g>
<g id="slogan2">
</g>
</svg>
