<?xml version="1.0" encoding="utf-8"?>
<!-- Generator: Adobe Illustrator 21.0.0, SVG Export Plug-In . SVG Version: 6.00 Build 0)  -->
<svg version="1.1" xmlns="http://www.w3.org/2000/svg" xmlns:xlink="http://www.w3.org/1999/xlink" x="0px" y="0px"
	 viewBox="0 0 326.7 168" style="enable-background:new 0 0 326.7 168;" xml:space="preserve">
<style type="text/css">
	.st0{display:none;}
	.st1{display:inline;}
	.st2{display:inline;fill:#F4F4F4;}
	.st3{display:inline;fill:#BF0811;}
	.st4{fill:#BF0811;}
	.st5{fill:#F4F4F4;}
	.st6{display:inline;fill:#EDEDED;}
	.st7{font-family:'Constantia';}
	.st8{font-size:14.8px;}
</style>
<g id="reglas" class="st0">
</g>
<g id="fondo" class="st0">
	<rect x="-229" y="-88" class="st1" width="797" height="619"/>
</g>
<g id="Logotipo_x5F_v0" class="st0">
</g>
<g id="original" class="st0">
</g>
<g id="Logotipo_x5F_blanco">
	<path class="st5" d="M118.5,105.6c0.4,1.5,0.6,5.8,0.6,12.7c-0.1,0.1-13.8,8.5-13.9,8.6c-0.5,0.4-6.2,0.2-6.8-0.1
		c-1.9-1.6-4.5-4.6-4.2-3.9c0,0-2.7-4.3-5.2-10.2c-0.1-0.3,0.2-5.7,0.3-5.8c0,0,3.2,8.8,5.1,11.4c1.5,2,5.7,5.2,5.7,5.2
		c0.2-0.1,6.2-0.8,6.6-1.4c0,0,7.2-4.2,7.8-6.4c0,0,0.4-2,0.5-2.1c0.4-0.7-0.3-6.7-0.8-7.6c0-0.1-0.5-1.4-0.5-1.4
		c-0.2-0.3-3.1-4.4-3.2-4.5c-0.3-0.2-5.8-1.1-6.3-1.1c-0.5,0-2.6,0.2-3.3-0.1c-0.1-0.1,1.3,2.3,3.2,3.2c0,0-6.9-2.6-8.1-4.2
		c-0.1-0.1-3.9-4-3.9-4.7c0.6,0.4,6.2-13.2,6.4-13.3c0-0.2,2.9-4.8,2.9-4.9c0.7-1,1.4-1.7,2.1-2.2c0.7-0.5,4.7,0,4.7,0
		c1.4,0.7,2.7,2,3.9,3.9c0.4,0.6,4,8.6,3.9,8.8c0,0.1-0.2,7-0.5,7.8c0,0-2.3-7.4-2.8-8.8c-0.7-2.4-4.7-6.9-5.1-7.1
		c-0.2,0.1-1-0.4-1.8-0.1c-0.8,0.3-2.5,2.2-2.5,2.2c-0.2-0.3-3.8,8.6-3.9,9.8c-2.1,6.1,16.7,6.7,16.9,6.7c0,0.1,0.1,0.1,0.1,0.2
		c0,0,1.6,2.4,1.6,2.5C118.1,98.9,117.9,103.4,118.5,105.6z M94.3,94 M99.1,85.6 M99.1,85.2 M99.8,84L99.8,84 M115,84.4 M115.2,84.6
		H115l0.2,0.2V84.6z M116.8,108 M117.2,109.8C117.2,109.8,117.1,109.6,117.2,109.8C117.2,109.8,117.3,109.8,117.2,109.8z"/>
	<path class="st5" d="M153.9,80.2c-2.8,5.8-3.9,9.4-4.1,9.4c-0.1-0.3,1.3-10.8,1.1-11.1c-0.5-0.6-11-1.1-11.5-1.1
		c-0.2,0.4-1.7,22.8-1.8,24.2c-0.1,5.5-2.1,33.9-2.2,33c-0.1-1.2-2.1-28.3-2.2-33c0-0.2-4.6-23.7-4.6-24c-1.4-0.3-7.2,0.9-7.5,0.8
		c0,0,1.7,10.6,1.8,11.1l0,0c0,0-4.8-9.5-4.8-9.7c-0.2-0.5,0.3-8.1,0.4-8.2c0,0,5.8,1.3,11,2.2c2,0.3,9.1,0.5,9.3,0.5
		c0.2,0,16.1-2.6,15.9-2.6C154.9,72.2,153.9,80,153.9,80.2z M122.9,72.1 M122.1,74.7 M126.4,74.5 M133.5,84h0.1
		C133.7,84,133.5,83.9,133.5,84z M133.9,86.5 M133.9,87.1v0.3 M147.5,74.7c0,0,0.1,0.4,0.1,0.4C147.7,75.1,147.7,74.7,147.5,74.7z"
		/>
	<g id="XMLID_1_">
		<g>
			<path class="st4" d="M199.6,62.8l8.6-0.4l-2.6,2.8c-0.6,0.6-1.3,1-2.2,1l-3,0.2c-0.3,0-0.6-0.1-0.8-0.3l-9.2-8.3l-0.9,0.6l-4-0.3
				l-4.5,1.5l3.8-3.2l4.9-0.9c0.4-0.1,0.9-0.1,1.3,0.1l4.4,1.3l2.4,2.6l-2.7-0.9l3.5,3.7C198.9,62.7,199.2,62.8,199.6,62.8z"/>
		</g>
	</g>
	<polygon class="st4" points="196.3,61.5 194.7,59.8 192.9,58.1 192.6,58 194.2,60 195.2,60.9 	"/>
	<polygon class="st4" points="201.8,63 203.4,63.3 204.6,63 205.5,63 204.4,63.8 203.6,63.9 	"/>
	<path class="st5" d="M92,134.6c0,0-2.6-0.5-2.7-0.7c0,0-7.2-26.6-7.2-26.6c-0.3-0.2-11.6,1.5-12.2,1.6c0,0.2-2.6,1.1-2.8,1.4
		c0-0.1-3.7,16.8-3.8,17.2c0,0-3,1.4-3,1.1c-0.1-0.1,3.2-17.4,3.4-17.9c-0.2-0.1-11.5,2.6-11.8,2.7c-0.3,0-2.3,1-2.4,1
		c0,0,1.7-1.7,1.9-1.9c0.2,0,12.8-5.7,13-5.8c0.4-0.7,7.1-28.7,7.1-29.9c0.2,0,0.3,0,0.5-0.1c0.5,1.8,1,2.9,1.4,3.1
		c0-0.2,1.7-6.3,1.7-6.6c-0.2-0.2,8.8,28.1,9.1,28.7c0.2,0,3.1,1.6,3.2,1.7c-0.1,0-1.6,2.6-1.6,2.6C85.8,106.8,92,134.6,92,134.6z
		 M63.4,116.3c0,0-0.1-0.1-0.2-0.1v0.2C63.2,116.4,63.3,116.4,63.4,116.3L63.4,116.3z M80.9,102.8c0-0.1-7.1-16.8-7.2-17.6
		c0,0-5.6,19.8-5.6,20.4C68.1,105.6,79.8,103.1,80.9,102.8z M68.6,92.9 M69.3,90 M69.3,94 M69.7,108.4 M69.7,93.3 M69.6,93.1
		 M70.8,89.3 M71.2,82.3L71.2,82.3c0.2,0.1,0.3,0.2,0.4,0.2C71.6,82.5,71.2,82.3,71.2,82.3z M72.2,84.6 M72.3,87.3 M72.5,87.8
		c0,0-0.1-0.1-0.2-0.1C72.3,87.8,72.4,87.8,72.5,87.8z M74.7,77.8 M74.9,105.9 M76.2,80.2h-0.1 M76.6,81.8 M76.9,82.7 M77.2,85
		 M77.6,86 M78,86.9 M77.9,87.9 M79.6,90.3 M80.8,94.2 M81.3,95.2 M81.4,95.6c0.1,0.2,0.1,0.3,0.1,0.3
		C81.5,95.9,81.6,95.7,81.4,95.6z M83.7,109"/>
	<path class="st5" d="M184.3,71.8c0,0,1.7,4,1.7,4.2s11.5,16.8,11.5,16.8l2.3,4.9l1.1,3.5L200.7,80l-0.8-5.1l2.6-2h0.5l0.5,1.4
		l1.1-0.9l0.5-4.2l0.8,2.6c0,0-1.4,11-1.5,11.4c0,0.3,0.9,46.7,0.9,46.7l-1.7-1.2l-4.4-22.1l-3.4-7.5L187,86.8l-0.5,36.9
		c0,0-2.6-2.3-2.8-2.8s-0.1-40.5-0.1-40.5l-0.6-8.9l-0.4-1.7L184.3,71.8z"/>
	<path class="st5" d="M206.5,123.8l6.9-2.7l16.5,7.1l1.4,1.7l2.8,0.8l-0.6-25.9l-5.1,16.6l-2.1,0.7l-2.1-0.7l-8.2-4.9l0.2-22.3
		l2.8-1.3l2.4,1.1l3.9,11.6l1.6,1.1l-0.9-18.2l-1.3-0.6l-0.6,2l-5.9-0.2l-1.7-1.2l0.9-8.9l0.5-1.3l7.6-0.4l2.8,1l2.1,11.4l1.8,2.6
		l1.7-20.2l-10,1l-11.5-2.4l-7-1.8l4.6,5.6l2.2,13.6c0,0,0.3,27.8,0.1,28.3s-6,3.9-6,3.9V123.8z"/>
	<polygon class="st5" points="228.7,139.7 241.6,133 245.7,130.2 242.9,135.3 260,119.1 263.6,107.4 266.1,91.8 263.8,81.1 
		258.5,79.6 254.6,77.5 250.1,75.5 245.1,74.3 241.5,72.5 237.2,72.4 242.4,74.9 234.5,76 236.7,78.4 239.1,83.3 241.1,90.1 
		241.6,104.2 243,106.5 242.4,127.6 244.3,126.1 246.8,79.6 257.2,83.8 258.7,90.1 259.1,111.3 256.8,115.6 253,121.4 246.8,127.5 
		229.5,138.2 	"/>
	<path class="st5" d="M181.5,134.4c0,0-2.6-0.5-2.7-0.7c0,0-7.2-26.6-7.2-26.6c-0.3-0.2-11.6,1.5-12.2,1.6c0,0.2-2.6,1.1-2.8,1.4
		c0-0.1-3.7,16.8-3.8,17.2c0,0-3,1.4-3,1.1c-0.1-0.1,3.2-17.4,3.4-17.9c-0.2-0.1-11.5,2.6-11.8,2.7c-0.3,0-2.3,1-2.4,1
		c0,0,1.7-1.7,1.9-1.9c0.2,0,12.8-5.7,13-5.8c0.4-0.7,7.1-28.7,7.1-29.9c0.2,0,0.3,0,0.5-0.1c0.5,1.8,1,2.9,1.4,3.1
		c0-0.2,1.7-6.3,1.7-6.6c-0.2-0.2,8.8,28.1,9.1,28.7c0.2,0,3.1,1.6,3.2,1.7c-0.1,0-1.6,2.6-1.6,2.6
		C175.3,106.6,181.5,134.4,181.5,134.4z M152.8,116.1c0,0-0.1-0.1-0.2-0.1v0.2C152.7,116.2,152.7,116.2,152.8,116.1L152.8,116.1z
		 M170.4,102.6c0-0.1-7.1-16.8-7.2-17.6c0,0-5.6,19.8-5.6,20.4C157.6,105.4,169.3,102.9,170.4,102.6z M158,92.7 M158.8,89.8
		 M158.8,93.8 M159.2,108.2 M159.2,93.1 M159.1,92.9 M160.3,89.1 M161.1,82.3 M161.6,84.4 M161.7,87.1 M161.9,87.6
		c0,0-0.1-0.1-0.2-0.1C161.8,87.6,161.8,87.6,161.9,87.6z M164.2,77.6 M164.4,105.7 M165.7,80h-0.1 M166.1,81.6 M166.4,82.5
		 M166.7,84.8 M167,85.8 M167.5,86.7 M167.3,87.7 M169,90.1 M170.3,94 M170.8,95 M170.9,95.4c0.1,0.2,0.1,0.3,0.1,0.3
		C171,95.7,171,95.5,170.9,95.4z M173.1,108.8"/>
	<path class="st5" d="M297.3,135c0,0-2.6-0.5-2.7-0.7c0,0-7.2-26.6-7.2-26.6c-0.3-0.2-11.6,1.5-12.2,1.6c0,0.2-2.6,1.1-2.8,1.4
		c0-0.1-3.7,16.8-3.8,17.2c0,0-3,1.4-3,1.1c-0.1-0.1,3.2-17.4,3.4-17.9c-0.2-0.1-11.5,2.6-11.8,2.7c-0.3,0-2.3,1-2.4,1
		c0,0,1.7-1.7,1.9-1.9c0.2,0,12.8-5.7,13-5.8c0.4-0.7,7.1-28.7,7.1-29.9c0.2,0,0.3,0,0.5-0.1c0.5,1.8,1,2.9,1.4,3.1
		c0-0.2,1.7-6.3,1.7-6.6c-0.2-0.2,8.8,28.1,9.1,28.7c0.2,0,3.1,1.6,3.2,1.7c-0.1,0-1.6,2.6-1.6,2.6C291.1,107.2,297.4,135,297.3,135
		z M268.7,116.7c0,0-0.1-0.1-0.2-0.1v0.2C268.5,116.8,268.6,116.7,268.7,116.7L268.7,116.7z M286.2,103.1c0-0.1-7.1-16.8-7.2-17.6
		c0,0-5.6,19.8-5.6,20.4C273.5,106,285.1,103.5,286.2,103.1z M273.9,93.3 M274.6,90.4 M274.6,94.3 M275.1,108.8 M275.1,93.7
		 M275,93.5 M276.1,89.6 M276.5,82.7L276.5,82.7c0.2,0.1,0.3,0.2,0.4,0.2C277,82.9,276.5,82.7,276.5,82.7z M277.5,85 M277.6,87.7
		 M277.8,88.2c0,0-0.1-0.1-0.2-0.1C277.6,88.1,277.7,88.2,277.8,88.2z M280,78.2 M280.2,106.3 M281.5,80.6h-0.1 M281.9,82.1
		 M282.2,83.1 M282.5,85.4 M282.9,86.4 M283.3,87.2 M283.2,88.3 M284.9,90.7 M286.1,94.5 M286.7,95.6 M286.8,96
		c0.1,0.2,0.1,0.3,0.1,0.3C286.9,96.3,286.9,96.1,286.8,96z M289,109.4"/>
	<g id="rasgos">
		<g id="XMLID_5_">
			<g>
				<path class="st5" d="M81.6,42.3c0,0,0-0.2-0.1-0.3C81.5,42.1,81.5,42.2,81.6,42.3z M71.4,28.7C71.3,28.7,71.3,28.7,71.4,28.7
					l-0.2-0.1C71.2,28.7,71.3,28.7,71.4,28.7z M71.6,28.8c-0.1,0-0.1-0.1-0.2-0.1C71.4,28.8,71.5,28.8,71.6,28.8z M92,81
					c0,0-2.6-0.5-2.7-0.7c0,0-7.2-26.6-7.2-26.6c-0.3-0.2-11.6,1.5-12.3,1.6c0,0.2-2.6,1.1-2.8,1.4c0,0.1-3.7,16.8-3.8,17.2
					c0,0-1.3,0.6-2.2,0.9l0.1-5.3c1-5.1,2.3-12.1,2.4-12.4c-0.2-0.1-11.6,2.6-11.8,2.7c-0.3,0-2.3,1-2.4,1c0,0,1.7-1.7,1.9-1.9
					c0.3,0,12.8-5.7,13-5.8c0.4-0.7,7.1-28.7,7.1-29.9c0.2,0,0.3,0,0.5-0.1c0.5,1.8,1,2.9,1.4,3.1c0-0.2,1.7-6.3,1.7-6.5
					c0,0.5,8.8,28.1,9.1,28.7c0.1,0,3.1,1.6,3.1,1.7c-0.1,0-1.6,2.6-1.6,2.7C85.8,53.2,92,80.9,92,81z M68.1,52
					c0,0,11.7-2.5,12.8-2.8c0-0.2-7.1-16.8-7.2-17.6C73.7,31.6,68.2,51.4,68.1,52z M72.5,34.2c0,0-0.1-0.1-0.2-0.1
					C72.3,34.1,72.4,34.1,72.5,34.2z M63.3,62.7L63.3,62.7c0.1,0,0-0.1-0.1-0.1v0.2C63.2,62.8,63.3,62.7,63.3,62.7z"/>
				<path class="st5" d="M71.3,28.7C71.3,28.7,71.3,28.7,71.3,28.7c0,0-0.1,0-0.1,0H71.3z"/>
				<path class="st5" d="M61.6,59l-0.3,10.5c-0.6,3-1,5.4-1,5.4c0,0.1,0.4,0,0.8-0.2L61,80.4c0,0-3.2-5.9-3.5-5.5
					c-0.1,0-1.2-0.3-2.7-0.8l0.4-1.1l0.2,0.1c0,0,1.9-2.3,2-2.4c0-0.1,2.4-8.3,2.4-8.3L61.6,59z"/>
				<path class="st5" d="M61.3,69.5l-0.1,5.3c-0.5,0.2-0.9,0.3-0.8,0.2C60.3,74.9,60.7,72.5,61.3,69.5z"/>
				<path class="st5" d="M61,80.4l-5.2-2.3l-3.6-1.6l-10.8-3.8l-2-0.5c0.1-0.2,0.2-0.4,0.2-0.4c0,0,2.2-1,2.7-0.9
					c-0.1-0.2,8.2,2,12.6,3.2c1.5,0.4,2.6,0.7,2.7,0.8C57.7,74.5,61,80.4,61,80.4z M57,76.3V76h-0.1v0.2H57z M56.8,75.7L56.8,75.7
					l-0.1-0.1h-0.3v0.4C56.6,75.9,56.8,75.8,56.8,75.7z"/>
				<path class="st5" d="M55.7,78.2l5.2,2.3c0,0.1-0.8,11.5-0.8,11.5c0-0.2-0.6-2.5-0.6-3c0,0-2.8-9.6-4.1-10.1L55.7,78.2z"/>
				<path class="st4" d="M59.3,111.8C59.4,111.7,59.4,111.7,59.3,111.8C59.4,111.8,59.4,111.8,59.3,111.8z"/>
				<path class="st5" d="M59.3,111.8c-0.4,0.4-1.8,2.6-1.8,2.6c-0.2,0.6-5.3,10.1-5.3,10.2c-0.2,0.1-2,1.4-2.1,1.5
					c-0.4,0.2-5.2,0.8-5.1,0.7c0.2-0.1,2-0.8,2.2-0.9c0.1-0.1,0.7-1.1,0.7-1.1s-2.9-0.4-2.9-0.4c0-0.1-5.7-3.5-5.7-3.5
					c-0.1-0.1-4.5-4.6-4.5-4.6c-0.5-1-1.1-2.2-2.1-3.7c0-0.1-4.8-11.5-4.8-11.6c0,0,2.1-11.1,2.4-11.2c0-0.4,5.2-10.6,5.2-10.7
					c0.1-0.2,3-5.3,3.8-6.8l2,0.5l10.8,3.8l3.6,1.6l-0.3,0.6c-0.3-0.2-9.7-2.4-10.8-2.4c-0.1,0.2-3.7,4.3-3.7,4.4
					c-3.8,6.4-8.2,16.4-8.2,16.8c0.1,1.6,3.3,11.4,3.4,11.5c0.1,0.2,8,11.9,8,11.9c0.2,0.2,3,1.5,3.4,1.5c0-0.1,2.6-1.5,2.7-1.6
					c0-0.1,3.9-4.8,3.9-4.8C54.2,116.1,58.6,112.2,59.3,111.8z"/>
				<rect x="56.8" y="76" class="st4" width="0.1" height="0.2"/>
				<path class="st4" d="M56.7,75.7L56.7,75.7c0,0.1-0.1,0.2-0.3,0.2v-0.4h0.3V75.7z"/>
				<path class="st5" d="M55.2,73.1l-0.4,1.1C50.4,73,42.1,70.8,42.2,71c-0.5-0.1-2.6,0.9-2.7,0.9c0,0-0.1,0.2-0.2,0.4L33.9,71
					L32,71.9l1.2-7.7l0.3-21.6l-0.7-9.2l-2-12.2l-1-1.1l1.7-1.2l1.8,1.4l1.6,0.1l1.2-0.2l1.3-3l0.1,0.2l0.5,2.1l1.8-3.6l0,1.3
					l-2.2,15.9l0.1,6.8l0.8,22.8l1.1,2.5l2.5,2.5L55.2,73.1z"/>
			</g>
		</g>
	</g>
</g>
<g id="slogan" class="st0">
	<g class="st1">
		<path class="st5" d="M154.8,145.4c-0.1,0.3-0.8,0.2-1.2,0.5c0,0.3-0.1,1-0.1,1.1l0.3,4.1v3.4c0,0.1-0.1,0.6-0.1,0.8
			c-0.1,0.8-0.2,2.1-0.2,2.2s0,0.2,0.1,0.3c0,0.2,0.1,0.3,0.1,0.4c0,0-0.2,0.1-0.2,0.2c0,0.3,0,0.8,0,1.3c0,0.3-0.1,0.2-0.1,0.3v0.9
			c0.1,0.4,0.2,0.9,0.2,1.3c0,0.2-0.1,0.4-0.1,0.5s0.2,0.4,0.2,0.6c0,0.1-0.1,0.3,0,0.5c0,0,0,0,0.1,0.1c0.1,0.3,0.1,0.8,0.2,1.3
			c0,0.1,0,0.2,0,0.4c0,0.1,0.1,0.2,0.1,0.3c0.1,0.4,0,0.7,0,1.1c0.1,0.3,0.1,0.7,0.1,0.9c0,0.3,0.2,0.9,0.2,1
			c0,0.1-0.1,0.4-0.1,0.5c0.1,0.1,0,0.5,0,0.7c0,0.2,0.1,0.4,0,0.6c0,0,0,0.1-0.1,0.1c-0.1,0-0.3-0.1-0.6-0.1c0-0.2-0.1-0.5-0.1-0.7
			c-0.1-0.8-0.1-1.6-0.1-2.4c0-0.1,0-0.2,0-0.3c0-0.1-0.1,0-0.1-0.1c0,0,0-0.1,0-0.2c-0.1-0.1-0.1-0.3-0.1-0.5c0-0.2,0-0.4,0.1-0.5
			c0-0.1,0-0.2-0.1-0.3c-0.2-0.6,0-1-0.3-1.4c0-0.3-0.2-0.9-0.2-1.3c0-0.3,0-0.7,0-1c0-0.2-0.1-0.5,0.1-0.7
			c-0.2-0.3-0.1-0.8-0.1-1.1c0-0.4-0.1-0.9-0.1-1.3c0-0.7,0-1.5,0.1-2.2c0-0.1-0.1-0.3-0.1-0.4s0.1-0.2,0.1-0.3c0-0.1,0-0.4,0.1-0.5
			c0,0,0,0-0.1,0c0-0.2-0.1-0.5,0-0.7c0-0.1-0.1-0.2-0.1-0.3c0.1-0.1,0.1-0.4,0.1-0.6c0-0.2-0.3-0.5,0-0.8v-1.7
			c0-0.1-0.1-0.9-0.2-1.4c-0.1-0.3-0.1-0.8-0.1-1.2c0-0.6-0.2-1.6-0.2-1.7l0-0.1c0-0.3,0.1-0.7,0.1-1c0,0,0.1-0.1,0.1-0.2v-0.2
			c-0.3-0.1-1.2-0.3-1.5-0.3l-0.1-0.1c-0.4,0-0.9,0-1.4-0.1c-0.1,0-0.2-0.1-0.3-0.1s-0.3,0-0.5,0.1c-0.1,0-0.2,0.1-0.3,0.2v1
			c0.1,0.1,0.1,0.2,0.1,0.3c0,0.4,0,0.9,0,1.3c0,0.1,0.1,0.1,0.1,0.2v2.8c0,0.1-0.1,0.1-0.1,0.2c0,0.3,0,0.7,0,1
			c0,0.1-0.1,0.2-0.1,0.3c0,0.1,0,0.3,0,0.5c-0.2,0.7-0.1,1.1-0.2,1.5c-0.2,0.9-0.3,1.8-0.5,2.7c-0.1,0.4-0.3,1.3-0.3,1.4
			s0.1,0.4,0.1,0.6c0.1,0.5,0.1,1.3,0.2,2.2c0,0.2,0.2,0.5,0.2,0.8c0.1,0.6,0.2,1.4,0.2,2.1c0,0.2,0.2,1,0.2,1.1s0,0.4-0.2,0.4
			c-0.1,0-0.2,0-0.3,0c-0.1,0-0.4-0.3-0.5-0.4c0-0.2-0.2-0.7-0.1-0.8c0-0.3-0.1-0.7,0-1.1c-0.2-0.3-0.3-0.8-0.3-1.3
			c-0.3-0.6-0.3-1.3-0.3-1.9c-0.1-0.1-0.2-0.3-0.2-0.4v-0.9c0-0.1,0-0.3,0.1-0.5c0-0.1,0-0.4,0.2-0.4c0,0-0.1,0-0.1,0v-0.2
			c0-0.1,0.1-0.5,0.1-0.7c0,0-0.1-0.1,0-0.1c0-0.1,0.1-0.2,0.1-0.3c0,0,0-0.1,0-0.2c0.2-0.2,0-0.6,0.1-0.9c0.1-0.2,0.2-0.5,0.3-0.7
			c-0.2-0.5,0-0.9,0.1-1.4c0,0-0.1,0-0.1-0.1l0.3-4.1c0-0.1-0.1-0.3-0.2-0.4c0-0.1,0-0.2,0-0.3V147c-0.2-0.3-0.1-0.8,0-1.3
			c0,0,0,0-0.1,0c-0.1,0-0.6,0.3-0.8,0.3c-0.1,0-0.3,0-0.4,0s-0.3-0.1-0.4-0.2c0-0.1,0.1-0.3,0.2-0.3s0.2,0,0.3,0
			c0.1,0,0.3-0.1,0.5-0.1c0.1-0.1,0.3-0.2,0.4-0.3c0-0.3,0.1-0.6,0.2-0.9c0-0.1-0.1,0-0.1-0.1c0-0.1,0-0.3,0-0.5
			c0-0.1,0.1-0.2,0.1-0.3c0-0.4-0.1-0.9,0.1-1.3c0-0.1,0.2-0.2,0.3-0.2c0.4,0,0.6,0.3,0.6,0.6c0,0.1-0.1,0.7-0.2,0.9
			c0,0.1,0.1,0.2,0.1,0.3c0,0.1-0.1,0.4-0.1,0.5s0.1,0.4,0.1,0.5c0.4,0.2,1.1,0,1.4,0c0.1,0,2.2,0.3,2.3,0.3c0.2,0,0.2,0,0.2-0.2
			c0-0.3-0.1-0.4-0.3-0.6c0.1,0,0.3,0,0.4-0.2c0-0.2,0.1-0.3,0.1-0.5c0-0.1-0.1-0.1-0.1-0.3c0-0.2,0.2-0.6,0.2-1c0,0,0-0.1-0.1-0.2
			c0-0.1,0-0.2,0-0.3c0.1-0.1,0.3-0.2,0.4-0.2s0.5,0.2,0.7,0.4v0.4c0,0.1-0.2,0.5-0.2,0.7c0,0.1,0.1,0.3,0.1,0.4
			c0,0.4-0.1,0.8-0.1,1.3c0.3,0.1,0.7,0.2,1,0.4c0,0.1,0,0.2,0,0.4L154.8,145.4z M154,171.2L154,171.2c0.1-0.1,0.2,0,0.2,0H154z"/>
		<path class="st5" d="M158.1,156c0.1,0.7,0,0.9-0.1,1.3c0,0,0,0-0.1,0c0,0.1,0,0.3,0,0.4c-0.1,0.3-0.1,0.9-0.2,1.3
			c0.1,0.2-0.1,0.7-0.2,1c0,0,0,0.1,0,0.2c0,0.4,0,0.9,0,1.3c0,0.4,0,0.8-0.1,1.2c0,0.1,0.1,0.1,0.1,0.2c0,0.4,0,1-0.2,1.5
			c-0.2,0.7-0.4,1.3-0.2,1.7c0,0,0,0.1,0,1.7c0,0.2-0.1,0.3-0.2,0.6h-0.2c0-0.1-0.1-0.2-0.2-0.4c-0.1-0.1-0.1-0.4-0.1-0.5
			c0-0.4,0-0.7,0-0.9c0,0-0.1-0.1-0.1-0.2c0-0.3-0.1-0.8-0.1-0.9c0-0.1,0.2-0.7,0.2-1.1c0-0.3,0.1-0.7,0.1-0.8v-1.1
			c0-0.1,0.2-0.4,0.2-0.5s0,0-0.1-0.1c0-0.3-0.1-0.6-0.1-0.8c0-0.1,0,0,0-0.2c0-0.1,0.1-0.8,0.1-1.3c0.1-0.1,0.1-0.2,0.2-0.4
			c0-0.1-0.1-0.1-0.1-0.2s0.1-0.5,0.1-0.8c0-0.2,0.1-0.5,0.1-0.7c0,0-0.1-0.1-0.1-0.2s0.1-0.3,0.1-0.4c0-1,0.1-3,0.1-3.1
			s-0.1-0.3-0.1-0.4c0-0.3,0.1-0.7,0.1-1.1c0-0.1-0.1-0.3-0.1-0.5s0-0.4,0-0.5c0-0.2-0.2-0.3-0.2-0.5c0-0.2,0-0.4,0-0.6
			c-0.1-0.2-0.1-0.7-0.1-1c0-0.2-0.2-0.7-0.2-0.8s0.1-0.4,0.2-0.6c0,0-0.1-0.1-0.1-0.2c0-0.2,0.1-0.3,0.1-0.5c0-0.1,0-0.4,0-0.6
			c0-0.6,0.1-1.3,0.2-1.9c0-0.1,0.4-0.3,0.5-0.3c0.2,0,0.6,0.4,0.6,0.5c0,0.1-0.1,0.5-0.1,0.7c0,0.3-0.1,0.7-0.1,1
			c0,0.3,0,0.6,0,0.9c0,0,0,0-0.1,0.1c0,2.3,0.2,2.1,0.2,2.8c0,0.2,0,0.4,0.1,0.7c0,0.1,0.1,0.2,0.1,0.3c0.1,0.3,0.2,0.7,0.2,1.2
			c0,0.4,0,1,0,1.5c0,0.2,0,0.3,0,0.5c0,0.1,0.1,0.2,0.1,0.3C158.3,154.5,158.1,155.5,158.1,156z M158.4,142
			c-0.2,0.2-0.5,0.3-0.7,0.3c-0.1,0-0.2,0-0.3,0s0-0.1-0.1-0.1c-0.2,0-0.5-0.2-0.5-0.4c0-0.1,0.1-0.3,0.2-0.4
			c0.1-0.1,0.3-0.1,0.4-0.1c0.1,0,0.1-0.1,0.2-0.1s0.3,0.1,0.4,0.1c0.1,0,0.2,0.1,0.4,0.2V142z"/>
		<path class="st5" d="M168.9,161c0,0-0.1,0.1-0.2,0.1c0.1,0.1,0.1,0.1,0.1,0.2s-0.3,1-0.4,1.6c0,0-0.1,0-0.1,0.1
			c0,0.2-0.1,0.4-0.1,0.6c-0.2,0.3-0.4,0.6-0.5,0.9c-0.1,0.1-0.2,0.1-0.3,0.2c-0.1,0.6-1,0.8-1.4,1.1c-0.2,0.1-0.6,0.3-1.1,0.3
			c-0.8,0.1-0.9,0.2-1.6,0.2c-0.3,0-0.9,0-1.1-0.1c-0.1,0-0.3,0-0.5-0.1c-0.4-0.2-0.8-0.6-0.9-1c-0.1-0.2-0.2-0.5-0.3-0.7
			c-0.2-0.4-0.2-1.2-0.1-1.5c-0.1-0.3-0.2-0.9-0.2-1c0-0.1,0.1-1,0.1-1.5c0.1-0.3,0.2-0.6,0.3-0.9c0.2-0.6,0.1-1.1,0.2-1.6
			c0,0,0-0.1-0.1-0.2c0-0.4-0.2-1.2,0.3-2c0.1-0.1,0-0.3,0.1-0.4s0.2-0.1,0.4-0.1c0.1-0.1,0.4,0,0.5,0c0,0,0.3,0.1,0.4,0.2
			c-0.1,0.1-0.2,0.2-0.4,0.2c-0.1,0.1-0.3,0.2-0.3,0.3c0,0.1-0.1,0.3,0,0.4c-0.1,0.1-0.2,0.3-0.2,0.4c0,0,0.1,0.1,0.1,0.1
			c0,0.1-0.1,0.3-0.1,0.4s0.3,0.2,0.3,0.4c0,0.1-0.1,0.5-0.2,0.7c0,0.1,0.1,0.1,0.1,0.1c0,0.3-0.1,0.6-0.1,0.9
			c-0.5,0.5-0.2,1.1-0.3,1.7c0,0.1,0.1,0.2,0.1,0.3c0,0.1-0.2,0.2-0.2,0.3s0.1,0.8,0.2,1.3c0,0,0,0.1,0.1,0.1c0,0.3,0,0.8,0.1,1.3
			c0,0.2,0.4,0.4,0.6,0.7c0.2,0,0.4,0.1,0.5,0.1s0.2,0,0.3,0s0.4,0,0.8-0.1c0.1,0,0.3-0.2,0.4-0.2c0.1,0,0.4,0,0.6-0.1
			c0.3-0.1,0.7-0.3,0.9-0.5c0.2-0.2,0.6-0.8,0.8-1.2c0.1-0.3,0.2-0.7,0.2-1c0-0.1,0.1-0.4,0.1-0.6c0.1-0.3,0.3-0.8,0.3-0.9
			c0-0.1-0.1-0.1-0.1-0.1c0-0.6-0.1-1.4-0.2-2.1c0-0.1-0.1-0.3-0.1-0.5c-0.1-0.2-0.3-0.6-0.5-0.9c-0.1-0.2-0.1-0.5-0.2-0.7
			c0,0-0.1-0.1-0.2-0.2c-0.1-0.2-0.2-0.5-0.3-0.8c0-0.1,0-0.2,0-0.4c-0.4-0.9-1.5-1.4-2.1-1.4c-0.1,0-1,0.1-1.2,0.1
			c-0.1,0-0.6-0.1-0.9-0.2c-0.1,0-0.2-0.2-0.3-0.2c-0.3-0.1-0.7-0.2-0.8-0.7c0-0.1-0.1-0.1-0.2-0.1c-0.4-0.8-0.5-0.9-0.5-1.5
			c0-0.4,0.2-0.9,0.3-1.2c0-0.4,0.1-0.6,0.2-1c0.1-0.3,0.1-0.6,0.3-0.9c0.2-0.3,0.5-0.4,0.5-0.8c0.1-0.1,0.2-0.3,0.3-0.5
			c0.1-0.1,0.2-0.2,0.3-0.3c0.3-0.2,0.6-0.4,0.8-0.6c0.1-0.1,0.3-0.1,0.3-0.2c0.2,0,0.6-0.1,0.7-0.1c0.4,0,1.3,0.6,1.5,1
			c0.1,0.2,0.1,0.6,0,0.8c0,0,0,0.1,0.1,0.1c0,0.2,0,0.4,0,0.6c0,0,0.1,0,0.1,0.1s-0.5,1.6-0.6,2c-0.1,0.1,0,0.3-0.1,0.4
			c-0.1,0-0.4,0-0.6-0.1c-0.3-0.1-0.5-0.5-0.6-0.6c0.2-0.3,0.1-0.2,0.1-0.4c0-0.1,0.3-0.6,0.4-0.8c0,0,0.1,0,0.1-0.1
			c0-0.1,0.1-0.1,0.1-0.2c0-0.1,0.1-0.3,0-0.4c0,0,0.1,0,0.1-0.1c0-0.4-0.1-0.4-0.4-0.4c-0.4,0-0.8,0.2-1,0.4
			c-0.4,0.3-0.8,0.7-1,1.3c0,0.1-0.1,0.3-0.2,0.5c-0.4,1.1-0.4,0.9-0.4,1.7c0,0.5-0.1,0.7,0.5,1.3c0,0,0.2,0.1,0.3,0.1
			c0.1,0,0.2-0.1,0.3-0.1s0.1,0.1,0.2,0.1c0.1,0,0.3-0.1,0.4-0.1s0.3,0.1,0.4,0.1s0.3,0,0.4,0c0.6,0,0.7-0.2,1.9,0.5
			c0.1,0,0.4,0.4,0.6,0.6c0.1,0.1,0.2,0.2,0.4,0.4c0,0,0,0.1,0,0.1c0.1,0.1,0.2,0.1,0.2,0.2c0.4,0.9,0.9,1.9,1.4,2.8
			c0,0,0,0.1,0.1,0.2c0.1,0.1,0.2,0.2,0.2,0.3c0,0.1,0,0.2,0,0.3c0.1,0.3,0.4,0.6,0.2,0.9c0,0,0.1,0.1,0.1,0.2
			c0,0.4,0.1,1.3,0.1,1.4S168.9,160.8,168.9,161z M167.7,159.5L167.7,159.5l-0.1,0L167.7,159.5L167.7,159.5z"/>
		<path class="st5" d="M179.3,145.4c-0.1,0.1-0.3,0-0.4,0.1c-0.1,0.1-0.2,0.2-0.2,0.3c-0.3,0.2-0.5,0.2-0.7,0.4
			c-0.1,0.2-0.5,0.2-0.5,0.4c-0.2,0-0.5,0.1-0.8,0.1c-0.4,0.1-0.8,0.3-0.9,0.3s0-0.1-0.1-0.1s-0.1,0.2-0.2,0.3c0,0.1,0,0.4-0.1,0.6
			c0,0-0.1,0.1-0.1,0.1c-0.1,0.4-0.1,0.8-0.3,1.2c0,0.1,0.1,0.3,0.1,0.4c0,0.1-0.1,0.4-0.1,0.5c0,0-0.1,0.1-0.1,0.2
			c0,0.1,0.1,0.9,0.1,1.3c0,0.4,0.1,0.8,0.1,1.2c0,0.3,0,0.7,0,1.1c0.4,0.6,0.3,0.9,0.3,1.5c0,0.1,0,0.2-0.1,0.2
			c0.1,0.4,0,0.8,0,1.2c-0.1,0.1-0.1,0.2-0.1,0.3c0,0.1,0.1,0.2,0.1,0.3c0.1,0.2,0,0.5-0.1,0.7c0,0.2,0.1,0.5,0,0.7
			c0,0.2-0.1,0.4-0.1,0.5c0,0-0.1,0.1-0.1,0.2c-0.1,0.5-0.2,1.1-0.4,1.9c-0.1,0.4-0.1,0.9-0.2,1.3c0.1,0.3,0,0.7,0.1,1
			c-0.1,0-0.1,0.1-0.1,0.2c0,0.1-0.1,0.3-0.1,0.4c0,0.1,0.1,0.3,0.1,0.5c0,0.1,0.1,0.4,0,0.4c0.1,0.1-0.1,0.2,0.1,0.3
			c-0.1,0-0.1,0.1-0.1,0.1v0.2c0.1,0.1,0.2,0.7,0.2,1c0,0.1-0.1,0.2-0.1,0.3c0,0.2,0.1,0.4,0.1,0.6c0,0-0.1,0-0.1,0
			c0,0.1,0,0.3,0,0.4l0,0c0,0.2-0.2,0.9-0.5,0.9c-0.1,0-0.2-0.1-0.2-0.1c0-0.4-0.1-0.8-0.1-1.3c0-0.2,0-0.4,0-0.7
			c-0.1-0.1-0.2-0.2-0.2-0.3s0.1-0.2,0.1-0.3c0-0.1,0-0.2,0-0.3c0-0.2,0.1-0.4,0.1-0.5c0-0.1-0.1-0.3-0.2-0.4c0-0.2,0.1-0.9,0.1-1.3
			c0-0.1-0.1-0.4-0.1-0.5c0-0.1,0.1-0.3,0.2-0.3c0,0,0,0-0.1,0v-0.3c0-0.1,0.1-0.2,0.1-0.3c0-0.2,0-0.5,0-0.7c0-0.1,0.1-0.2,0.1-0.3
			c0-0.1,0-0.3-0.1-0.4c0-0.1,0.1-0.2,0.1-0.3c0-0.1,0-0.3,0-0.4c0.1-0.3,0.3-0.7,0.3-1.1c0.1-0.2,0.2-0.6,0.2-0.9c0,0-0.1,0-0.1,0
			c-0.1-0.4-0.1-0.6,0-0.9c0-0.2,0-0.5-0.1-0.7c0,0,0,0,0-0.1c-0.1-0.5,0.1-0.4,0.1-0.6c0-0.1-0.1-0.1-0.1-0.2c0-0.1,0-0.2,0-0.3
			c0-0.1,0.1-0.1,0.1-0.2c0-0.2,0-0.4,0-0.6c0-0.1,0-0.3-0.1-0.4c0,0-0.1-0.1-0.1-0.1c-0.1-0.1-0.1-0.3-0.1-0.4c0-0.3,0.1-0.7,0.1-1
			c-0.1-0.3-0.1-0.6,0-0.9c0,0-0.1-0.1-0.2-0.1c0-0.1-0.1-0.3,0-0.5c0-0.1,0.1-0.2,0.1-0.3c0-0.1-0.1-0.1-0.1-0.2
			c0-0.1,0.1-0.2,0-0.4c0-0.1-0.2-0.2-0.2-0.3s0.2-0.4,0.2-0.6c0-0.2,0-0.4,0-0.5c0,0,0.1-0.1,0.1-0.2c0-0.1,0-0.2,0-0.3
			c0-0.4,0.3-0.8,0.4-1.2c-0.1,0-0.2-0.2-0.3-0.2c-0.2-0.1-0.7-0.2-0.8-0.2c-0.3,0-0.8,0.2-1,0.2c-0.2,0.1-0.6,0-0.8,0.1
			c-0.4,0.1-0.9,0.2-1.4,0.4c-0.1,0-0.1,0.2-0.2,0.2c-0.1,0-0.1,0-0.3,0c-0.1,0-0.2-0.3-0.2-0.3c0-0.4,0.5-0.2,0.5-0.4
			c0.1,0,0.4,0,0.5,0s0.2-0.2,0.2-0.3c0.1,0,0.1,0,0.1,0.1c0.3-0.3,0.6-0.4,1-0.4c0.5-0.1,1.6-0.2,1.7-0.2s0.3,0.1,0.4,0.1
			s0.8-0.1,0.9-0.1s0.2,0.1,0.3,0.1s0.2-0.1,0.3-0.1c0.2,0,0.5-0.1,0.6-0.1s0.3,0.1,0.4,0.1c0.1,0,0.9-0.5,1-0.5c0.1,0,0,0,0,0.1
			c0.1-0.1,0.2-0.2,0.3-0.3h0.1l0.1,0.1c0.2-0.4,0.5-0.3,0.8-0.4c0.1-0.2,0.5-0.3,0.7-0.3C179.5,145.1,179.4,145.3,179.3,145.4z
			 M177.1,146.6v-0.1H177v0.1H177.1z"/>
		<path class="st5" d="M190.7,153.8c-0.1,0.4-0.2,0.9-0.3,1.4c-0.1,0.1-0.2,0.1-0.3,0.2c0.1,0.3-0.3,0.6-0.3,0.8
			c-0.1,0.2-0.2,0.5-0.3,0.7c-0.1,0.1-0.2,0.2-0.3,0.3c-0.1,0.1-0.3,0-0.4,0.1c-0.1,0.1-0.3,0.5-0.5,0.6c-0.2,0.1-0.6,0.2-0.9,0.3
			c-0.3,0.1-0.8,0.3-0.9,0.3c-0.1,0-0.9,0-1,0s-0.3-0.1-0.5-0.2c-0.1,0-0.2,0-0.4,0c-0.1,0-0.1,0.1-0.2,0.1c-0.1,0-0.1-0.1-0.1-0.1
			c-0.5-0.1-1-0.5-1.4-0.7c-0.6-0.3-0.9-0.6-1.2-1c-0.1-0.2-0.3-0.5-0.4-0.8c-0.1-0.1-0.2-0.3-0.2-0.4c0-0.1,0-0.2,0-0.3
			c0-0.2-0.1-0.3-0.1-0.4c0-0.3,0.2-0.7,0.6-0.7c0.2,0,0.4,0.3,0.4,0.5c0.1,0.1,0,0.3,0.1,0.5c0.1,0.4,0.3,0.8,0.5,1.2
			c0.1,0.2,0.4,0.5,0.6,0.7c0.4,0.3,1.3,0.7,1.4,0.7s0.3-0.1,0.4,0c0.3,0,0.8,0.1,0.9,0.1c0.9,0,2.3-0.8,2.8-1.4
			c0.1-0.1,0.1-0.3,0.2-0.5c0-0.1,0.2-0.3,0.3-0.5c0.1-0.3,0.3-0.6,0.4-0.9c0-0.1,0-0.2,0-0.3c0-0.1,0.1-0.1,0.1-0.2
			c0-0.1,0-0.2,0-0.3c0-0.1,0-0.3,0.1-0.4c0.1-0.1,0.1-0.1,0.2-0.1c-0.3-0.2-0.4-0.5-0.2-0.7c0-0.1-0.1-0.1-0.1-0.1
			c0.1-0.3-0.1-0.8-0.3-1.3c-0.1-0.3-0.2-0.9-0.6-1.2c-0.2-0.2-0.5-0.5-0.6-0.7c-0.2-0.2-0.4-0.5-0.7-0.5c-0.1-0.1-0.4-0.2-0.5-0.2
			s0,0-0.1,0c-0.1,0-0.9-0.3-1-0.3s-0.6,0-0.8,0c-0.1,0-0.3,0.1-0.4,0.2c-0.2,0.1-0.7,0.1-1,0.3c-0.3,0.2-0.6,0.6-0.9,0.9
			c-0.1,0.1-0.2,0.3-0.2,0.5c0,0.1-0.2,0.2-0.2,0.4c0,0,0,0.1,0,0.2c0,0-0.1,0.1-0.1,0.2c-0.1,0.2-0.1,0.5-0.1,0.8
			c0,0.1-0.1,0.2-0.2,0.2c0.1,0.2,0,0.5,0,0.7c0,0-0.1,0.1-0.1,0.2c0,0.2,0.2,0.4,0,0.7c0,0,0,0,0.1,0c0,0-0.1,0.7-0.3,0.7
			c-0.1,0,0-0.1-0.1-0.1c-0.1,0-0.1,0.1-0.1,0.1c0,0-0.1,0-0.2,0s-0.2,0-0.2,0c-0.2-0.1-0.5-0.2-0.6-0.3c-0.1-0.1-0.1-0.4-0.1-0.6
			c0,0-0.1-0.1-0.1-0.2s0.2-0.7,0.3-1c0.3-1,0.2-1.7,0.8-2.8c0-0.1,0.1-0.1,0.1-0.1c0.3-0.5,0.7-1.4,1.5-1.7c0,0,0.1-0.2,0.2-0.2
			c0.5-0.1,1.5-0.4,1.6-0.4c0.8,0,1.8,0.1,2.4,0.4c0.3,0.1,0.6,0.3,1.2,0.5c0.1,0,0.2,0.2,0.4,0.3c0.2,0.1,0.5,0.3,0.7,0.4
			c0.1,0.1,0.3,0.3,0.3,0.5c0,0.1,0,0.2,0.1,0.2c0.1,0.1,0.2,0.2,0.3,0.3s0.2,0.3,0.2,0.4c0,0,0.1,0.1,0.2,0.2
			c0.1,0.2,0.2,0.3,0.1,0.5c0.1,0.1,0.2,0.4,0.3,0.5c0.1,0.3,0.1,0.6,0.1,0.9s0,0.9,0,1C190.8,152.9,190.7,153.5,190.7,153.8z
			 M180.2,153.2L180.2,153.2l-0.1,0.1h0.1L180.2,153.2z M180.6,152.4L180.6,152.4l-0.2-0.1v0.1H180.6z M180.6,152.7l-0.2,0v0H180.6
			L180.6,152.7z M180.9,153.1L180.9,153.1l-0.2-0.1v0.1H180.9z M181.1,152.5L181.1,152.5h-0.2v0.1L181.1,152.5z M181.1,152.7l-0.2,0
			v0H181.1L181.1,152.7z"/>
		<path class="st5" d="M198,168.9c-0.1,0-0.2,0-0.3,0s-0.2-0.2-0.3-0.2s0,0.1-0.1,0.1s-0.2-0.1-0.3-0.2c0.1,0,0.2,0,0.3,0
			c-0.1-0.1-0.2-0.1-0.3-0.1c-0.1,0-0.1-0.1-0.1,0v0c0,0-0.1-0.1-0.1-0.1c0,0,0,0,0-0.1c-0.1,0-0.2,0-0.3,0c0,0,0-0.1,0-0.2
			c-0.1,0-0.1-0.2-0.2-0.3l0,0c-0.1-0.2-0.1-0.3-0.2-0.4l0.1-0.1c-0.4-0.3-0.2-0.7-0.2-1c0-0.1-0.1-0.1-0.1-0.1c0-0.1,0-0.3,0-0.4
			c-0.1-0.7-0.3-1.4-0.4-1.9c-0.1-0.3-0.2-0.7-0.2-1c-0.1-0.4-0.3-0.9-0.3-1.3c-0.2-0.6-0.3-1.3-0.6-1.9c0-0.1-0.3-0.6-0.4-0.8
			c-0.1,0-0.1-0.1-0.2-0.1l-0.1,0.1c0.2,0.3,0,0.9,0.2,1.3c0,0.1,0,0.3-0.1,0.5c0,0.1,0.1,0.1,0.1,0.2s-0.2,0.2-0.2,0.4
			c-0.1,0.2,0.1,0.5,0.1,0.7c-0.2,0.1-0.1,0.3,0,0.4c-0.1,0.1-0.2,0.3-0.2,0.4s0.1,0.2,0.1,0.3c0,0.4-0.1,0.8,0,1.3
			c0,0.1,0.1,0.2,0,0.4c0,0,0.1,0.1,0.2,0.1c-0.4,0.4,0,1-0.4,1.3c0.1,0.1,0.1,0.2,0.1,0.3c0,0.1-0.1,0.4-0.2,0.5
			c0,0.1,0.1,0.1,0.1,0.1c0,0.2,0,0.5-0.1,0.7c0,0.1-0.1,0.2-0.2,0.2c0,0.1-0.1,0.2,0.1,0.3c0,0.2-0.1,0.4-0.1,0.5
			c-0.1-0.1-0.3-0.1-0.5-0.1l-0.1-0.1c-0.1-0.1-0.1-0.3-0.1-0.4s0.1-0.4,0.1-0.6c0-0.1,0-0.3,0-0.4c0-0.1,0.1-0.2,0.1-0.4
			c0.1-0.2,0-0.4,0-0.7c0-0.1,0.2-0.2,0.2-0.3c-0.1-0.2,0-0.5,0.1-0.7c0-0.6,0-1.3,0-1.9c0-0.1,0.1-0.4,0.1-0.6c0-0.1,0-0.2,0-0.3
			l0,0c0-0.1,0-0.9,0-1v-1.1c0-0.1-0.1-0.9-0.1-1.3c0-0.2-0.3-1-0.2-1.4c0,0,0-0.1-0.1-0.1c0-0.1-0.1-0.3-0.1-0.5
			c0-0.2,0.1-0.8,0-1.1c-0.1-0.4-0.3-0.5-0.2-1.1c-0.1-0.2-0.1-0.5,0-0.7c0.2-0.6-0.2-1.6-0.2-2.2c0-0.1,0.2-0.8,0.3-1.2
			c0-0.2,0-0.6,0.1-0.9c0,0,0,0,0-0.1c0-0.1,0.1-0.2,0.1-0.3c0-0.1,0-0.2,0.1-0.3c0-0.1,0.3-0.6,0.5-0.7c0.6,0,1.8,0,1.9,0
			c0.1,0,0.8,0.3,1.2,0.6c0.4,0.3,1.6,1.2,1.5,1.6c0.1,0.1,0.3,0.5,0.3,0.7c0,0.2,0.3,0.7,0.3,0.9c0,0.1-0.1,0.1-0.1,0.2
			c0,0.2,0,0.5,0,0.7c0,0.1-0.1,0.4-0.1,0.5c0,0,0,0.1,0,0.2c0,0.1-0.1,0.3-0.1,0.4c0,0.1-0.2,0.4-0.2,0.5s-0.2,0.2-0.3,0.4
			c0,0-0.1,0.2-0.2,0.2c-0.1,0-0.1,0-0.1-0.1c-0.1,0.2-0.2,0.3-0.3,0.4c0,0-0.1,0.2-0.1,0.2c-0.1,0.1-0.2,0.2-0.3,0.3
			c-0.3,0.3-0.7,0.4-1,0.6c0,0,0,0.1,0.1,0.1c-0.3,0.1-0.5,0-0.8,0.2c-0.1,0.1-0.1,0.2-0.1,0.3c-0.1,0-0.2,0.1-0.3,0.1
			c-0.1,0-0.1-0.1-0.1-0.1c0,0.2-0.1,0.3-0.1,0.4c0,0.1,0.2,0.2,0.3,0.2c0,0,0.1,0.1,0,0.2c0.2,0.2,0.4,0.3,0.6,0.5
			c0,0.1,0.2,0.3,0.3,0.5c0.1,0.1,0.1,0.3,0.1,0.4c0,0-0.1,0-0.1,0.1c0.1,0.1,0.1,0.2,0.1,0.3c0,0.1,0.1,0.1,0.2,0.2
			c0.1,0.1,0.1,0.3,0.2,0.5c0,0.1,0,0.3,0,0.5c0,0.2,0.2,0.3,0.2,0.5c0,0.1-0.2,0.5,0.2,0.7c-0.1,0.1-0.1,0.2-0.1,0.3
			c0,0.2,0.1,0.6,0.1,0.7s0.2,0.4,0.2,0.6c0,0.1,0.1,0.1,0.1,0.2c0.1,0,0.1,0,0.2-0.1c-0.3,0.1-0.3,0.1-0.3,0.3
			c0,0.1,0.1,0.2,0.1,0.3c0.1,0.3-0.1,0.6,0.2,0.9c-0.1,0-0.2,0.1-0.3,0.3c0,0,0,0,0,0.1c0.1,0,0.1-0.1,0.2-0.1
			c0,0.1,0.3,0.5,0.1,0.6v0.4c0,0,0.1,0,0.1,0c0,0.2,0.1,0.4,0.1,0.5c0,0,0,0,0,0.1c0,0,0.1,0.1,0.1,0.1c0,0.1,0.1,0.3,0.1,0.4
			c0.1,0.1,0.2,0.3,0.4,0.3c0.1,0,0.2,0.1,0.3,0.1c0.2,0.1,0.4,0.2,0.4,0.4C198.3,168.8,198.1,168.9,198,168.9z M197.1,151.4
			c0-0.3-0.1-0.7-0.1-0.8s0.1-0.1,0.1-0.1c-0.2-0.2-0.3-0.6-0.4-0.7c-0.5-0.7-1.4-1.1-1.8-1.3c-0.1-0.1-0.4,0-0.5,0h-0.1
			c-0.1,0-0.3,0-0.4,0s-0.2,0-0.2,0c-0.1,0-0.2,0-0.3,0.1c-0.2,0.2-0.1,0.5-0.2,0.7c-0.1,0.2-0.2,0.6-0.2,0.6c0,0.1,0.1,0.3,0.1,0.4
			c0,0.3-0.1,0.6-0.1,0.9c0,0.3,0,0.3,0,0.3c0,0.1,0.1,0.1,0.1,0.1c0,0-0.1,0.1-0.1,0.2c0.1,0.4,0.3,1.1,0.3,1.2
			c0,0.1,0,0.2-0.2,0.3v0.9c0.1,0.5,0.3,1.4,0.3,1.5c0,0.1,0,0.3-0.1,0.4c0,0.1,0,0.4,0,0.5c0.4-0.1,0.8-0.3,1-0.7
			c0.1,0,0.2,0,0.2,0c0.2-0.1,0.4-0.3,0.6-0.4c0.1-0.1,0.2-0.3,0.3-0.4c0.1,0,0.3,0,0.4-0.1c0.1,0,0.1-0.1,0.1-0.2
			c0.2-0.2,0.4-0.4,0.5-0.5c0-0.1,0-0.3,0.2-0.5c0-0.3,0.2-0.6,0.2-0.8c0-0.3,0-0.6,0-0.8c0-0.1,0.1-0.3,0.1-0.4
			C197.2,151.6,197.1,151.5,197.1,151.4z M198,168.5c0,0-0.2,0.1-0.2,0.1c0.1,0,0.2,0.1,0.3,0.1C198,168.7,198,168.5,198,168.5z"/>
		<path class="st5" d="M201.7,156c0.1,0.7,0,0.9-0.1,1.3c0,0,0,0-0.1,0c0,0.1,0,0.3,0,0.4c-0.1,0.3-0.1,0.9-0.2,1.3
			c0.1,0.2-0.1,0.7-0.2,1c0,0,0,0.1,0,0.2c0,0.4,0,0.9,0,1.3c0,0.4,0,0.8-0.1,1.2c0,0.1,0.1,0.1,0.1,0.2c0,0.4,0,1-0.2,1.5
			c-0.2,0.7-0.4,1.3-0.2,1.7c0,0,0,0.1,0,1.7c0,0.2-0.1,0.3-0.2,0.6h-0.2c0-0.1-0.1-0.2-0.2-0.4c-0.1-0.1-0.1-0.4-0.1-0.5
			c0-0.4,0-0.7,0-0.9c0,0-0.1-0.1-0.1-0.2c0-0.3-0.1-0.8-0.1-0.9c0-0.1,0.2-0.7,0.2-1.1c0-0.3,0.1-0.7,0.1-0.8v-1.1
			c0-0.1,0.2-0.4,0.2-0.5s0,0-0.1-0.1c0-0.3-0.1-0.6-0.1-0.8c0-0.1,0,0,0-0.2c0-0.1,0.1-0.8,0.1-1.3c0.1-0.1,0.1-0.2,0.2-0.4
			c0-0.1-0.1-0.1-0.1-0.2s0.1-0.5,0.1-0.8c0-0.2,0.1-0.5,0.1-0.7c0,0-0.1-0.1-0.1-0.2s0.1-0.3,0.1-0.4c0-1,0.1-3,0.1-3.1
			s-0.1-0.3-0.1-0.4c0-0.3,0.1-0.7,0.1-1.1c0-0.1-0.1-0.3-0.1-0.5s0-0.4,0-0.5c0-0.2-0.2-0.3-0.2-0.5c0-0.2,0-0.4,0-0.6
			c-0.1-0.2-0.1-0.7-0.1-1c0-0.2-0.2-0.7-0.2-0.8s0.1-0.4,0.2-0.6c0,0-0.1-0.1-0.1-0.2c0-0.2,0.1-0.3,0.1-0.5c0-0.1,0-0.4,0-0.6
			c0-0.6,0.1-1.3,0.2-1.9c0-0.1,0.4-0.3,0.5-0.3c0.2,0,0.6,0.4,0.6,0.5c0,0.1-0.1,0.5-0.1,0.7c0,0.3-0.1,0.7-0.1,1
			c0,0.3,0,0.6,0,0.9c0,0,0,0-0.1,0.1c0,2.3,0.2,2.1,0.2,2.8c0,0.2,0,0.4,0.1,0.7c0,0.1,0.1,0.2,0.1,0.3c0.1,0.3,0.2,0.7,0.2,1.2
			c0,0.4,0,1,0,1.5c0,0.2,0,0.3,0,0.5c0,0.1,0.1,0.2,0.1,0.3C201.8,154.5,201.6,155.5,201.7,156z M202,142c-0.2,0.2-0.5,0.3-0.7,0.3
			c-0.1,0-0.2,0-0.3,0s0-0.1-0.1-0.1c-0.2,0-0.5-0.2-0.5-0.4c0-0.1,0.1-0.3,0.2-0.4c0.1-0.1,0.3-0.1,0.4-0.1c0.1,0,0.1-0.1,0.2-0.1
			s0.3,0.1,0.4,0.1c0.1,0,0.2,0.1,0.4,0.2V142z"/>
		<path class="st5" d="M212.2,166.9c-0.3,0-0.5-0.2-0.7-0.5c0,0,0-0.1,0.1-0.1c0-0.1-0.5-0.3-0.3-0.4c-0.1,0-0.6-0.4-0.2-0.6
			c0,0,0-0.1-0.1-0.1c0,0-0.1,0-0.1,0c0-0.1-0.1-0.2-0.2-0.3c0,0,0-0.1,0-0.1c-0.1-0.1-0.2-0.1-0.3-0.2c0,0,0.1-0.1,0.2-0.1
			c-0.1-0.2-0.3-0.3-0.4-0.5c-0.1-0.2-0.2-0.5-0.2-0.8c0,0-0.1,0-0.1-0.1c0-0.1,0.1-0.2,0-0.3c0-0.1-0.1-0.2-0.2-0.3
			c0-0.1,0-0.2,0-0.3h-0.1c0,0,0.1-0.1,0.1-0.2s-0.3-0.4-0.3-0.6c0-0.1,0-0.2,0-0.4c-0.1-0.1-0.1-0.1-0.2-0.2c0-0.2,0.3-0.4-0.1-0.6
			c0-0.1,0.1-0.2,0.1-0.3c0-0.1-0.2-0.5-0.3-0.7c0.1-0.3-0.1-0.8-0.1-1.2c-0.2-0.4-0.2-1-0.2-1.3c0-0.3,0-0.6,0-1
			c0,0-0.1-0.1-0.1-0.2c0.1-0.4-0.4-1.1-0.3-1.7c-0.1-0.1-0.2-0.2-0.2-0.3c0,0,0-0.1,0-0.2c-0.2-0.3,0-0.5-0.1-0.8
			c0-0.1-0.2-0.1-0.2-0.2c0-0.1,0-0.2,0-0.3c-0.1-0.2-0.2-0.4-0.1-0.5c-0.1-0.2-0.3-0.5-0.4-0.9c-0.1-0.2-0.1-0.6-0.1-0.8
			c-0.1,0-0.1-0.2-0.2-0.3c-0.3-0.1-0.7-0.2-0.8-0.2c-0.1,0-0.4,0.1-0.6,0.1c0,0,0,0,0,0.1c-0.1,0.3-0.3,0.8-0.2,1.3
			c0,0.1,0.1,0.3,0.1,0.4c0,0.1,0,0.1,0,0.1c-0.1,0.6-0.4,1.4-0.3,1.9c-0.1,0.2,0,0.5,0,0.8c0,0-0.1,0-0.1,0.2
			c0,0.1,0.1,0.2,0.1,0.3c0,0.1,0,0.4,0,0.6c0,0,0.1,0.1,0.2,0.1c-0.1,0.2-0.1,0.6-0.2,0.9c0,0.5,0,1.2-0.1,1.7
			c-0.1,0.6,0,1.4-0.1,2c0,0.2-0.1,0.5-0.2,0.8c0,0,0.1,0.1,0.1,0.1c0,0.2,0,0.5,0,0.8c0,0.1-0.1,0.3-0.1,0.5c0,0.1,0,0.2,0,0.2
			c-0.1,0.2-0.2,0.6-0.3,0.7c0,0.1,0.1,0.1,0.1,0.1v0.2c0,0.1-0.2,0.4-0.2,0.5c0,0,0.1,0,0.1,0c-0.1,0.1-0.1,0.5-0.1,0.6
			c-0.1,0.3-0.2,0.7-0.3,1.1c0,0.2,0,0.4,0,0.7c0,0.1-0.1,0.2-0.2,0.2c0,0.1,0,0.2,0,0.2c0,0.1,0,0.1,0,0.2
			c-0.1,0.1-0.2,0.2-0.3,0.3h-0.2c-0.1-0.1-0.3-0.3-0.3-0.5c0,0,0.1-0.1,0.2-0.1c0.1-0.1,0.1-0.3,0.1-0.4c0,0,0.1-0.1,0.2-0.1
			c0-0.1,0.1-0.3,0.1-0.4c0-0.1,0-0.2-0.2-0.2v-0.2c0-0.1,0.1-0.3,0.2-0.5c0-0.1,0.1-0.3,0.1-0.5c0-0.3,0-0.6,0-0.9
			c0-0.1,0.1-0.1,0.1-0.1c0-0.2,0-0.6,0-0.9c0.1-0.1,0.3-0.3,0.3-0.4c0-0.1-0.2-0.5-0.2-0.6v-3.1c0.2-0.1,0-0.3,0.1-0.4
			c0-0.1,0-0.2,0.1-0.3c-0.1-0.1-0.1-0.3-0.1-0.5c0,0,0,0,0-0.1c0.1-0.3-0.1-0.4,0.1-0.6c-0.1-0.2,0.1-0.4,0.1-0.5
			c0-0.4-0.3,0-0.1-0.9c0,0-0.1,0-0.1-0.1c0-0.1,0-0.3,0-0.5c0,0,0-0.1,0.1-0.1c0.1-0.5-0.1-1.1,0.1-1.6c-0.1-0.2,0.1-0.5,0.1-0.7
			c0.1-0.3,0.1-0.6,0.2-0.9v-1.2c-0.1,0-0.2,0.1-0.3,0.1s-0.6-0.4-0.6-0.6c0.1,0,0.2-0.1,0.3-0.1c0.3-0.3,0.1-0.4,0.4-0.4
			c0.1,0,0.3,0.1,0.4,0.1c0.1,0,0.2-0.3,0.2-0.4c0-0.1-0.2-0.7-0.2-0.8c0-0.1,0.2-0.4,0.3-0.5c0,0,0,0,0.1,0
			c-0.3-0.4-0.2-0.2-0.2-0.4c0-0.2,0.3-0.4,0.3-0.5c0-0.1,0-0.2,0-0.3c0.1-0.5,0.2-0.7,0.6-0.7c0.2,0,0.3,0.1,0.5,0.2
			c0.8,0.6,0.6,1.4,0.9,2.1c0,0,0.1,0.1,0.1,0.2c0,0.1,0,0.2,0,0.4c0,0,0.1,0.1,0.1,0.2c0,0.2,0,0.3,0,0.5c0,0.1,0.1,0.1,0.1,0.1
			c0.2,0,0.6,0.2,0.7,0.2c0.2,0,0.8-0.1,1.1,0.1c0,0-0.1,0.1,0,0.2c0,0-0.1,0.1-0.1,0.1c0,0,0.1,0.1,0.2,0.2c-0.2,0-0.4,0.1-0.6,0.1
			c-0.1,0-0.4-0.1-0.6-0.1c-0.2,0-0.4,0-0.6,0.1c0.2,0.3,0.2,0.6,0.2,0.9c0,0.1,0.2,0.4,0.2,0.6c0,0.3,0.1,0.6,0.2,0.9
			c0.2,0.6,0.4,1.1,0.4,1.7c0.1,0.5,0.4,1.4,0.5,2c0,0.1,0,0.3,0,0.5c0,0,0,0,0.1,0.1c0,0.2,0,0.4-0.1,0.6c0.1,0.1,0.1,0.4,0.1,0.6
			c0,0.1-0.1,0.2,0,0.3c0.1,0.1,0.2,0.3,0.2,0.4c0,0.2,0,0.3,0,0.5c-0.2,0.3,0.3,0.2,0,0.4c0,0.1,0,0.4,0.1,0.5
			c0,0.1,0.2,0.2,0.2,0.3c0.1,0.6,0.2,1.3,0.3,1.9c0.1,0.3,0.2,0.7,0.3,1c0.1,0.1,0.1,0.3,0.2,0.4c0.1,0.4,0.3,0.7,0.4,1
			c0.3,0.3,0.2,0.6,0.4,0.9c0,0,0,0.1,0,0.1c0,0,0.1,0,0.2,0c0.1,0.1,0.1,0.3,0.2,0.4c0,0-0.1,0-0.1,0.1c0.1,0.1,0.1,0,0.2,0.1
			c0.1-0.1,0,0.1,0,0.1c0.1,0.1,0.2,0.1,0.2,0.3c0.2,0,0.3,0.1,0.4,0.2c0,0-0.1,0-0.2,0.1c0,0.1,0.1,0.1,0.3,0.2c0,0,0.1,0,0.1,0
			C212.3,166.7,212.3,166.9,212.2,166.9z M206.6,147.5c0-0.2,0-0.4,0-0.6c0,0-0.1-0.1-0.2-0.2c0-0.1,0-0.3,0-0.4
			c0-0.1-0.2-0.5-0.3-0.5c-0.1,0.1-0.3,0.3-0.3,0.5c0,0.1,0,0.3,0,0.5c-0.3,0.3-0.3,0.3-0.3,0.5c0,0.1,0,0.4,0.1,0.5
			c0,0.1,0.2,0.4,0.3,0.4c0.2,0.1,0.6,0.2,0.7,0.2h0.2c0-0.1,0-0.1,0-0.2C206.8,148.1,206.6,147.7,206.6,147.5z"/>
		<path class="st5" d="M227,157.1c0,0,0.1,0,0.1,0c-0.1,0.2-0.3,0.5,0,0.6c0,0-0.1,0-0.1,0c-0.1,0-0.1,0.1-0.1,0.1
			c0,0.1,0,0.2,0,0.3c0,0.2-0.1,0.5,0,0.7c0,0,0,0.1-0.1,0.2c0,0,0,0.1,0.1,0.2c-0.1,0-0.1,0-0.1-0.1c-0.3,0.1-0.1,0.4-0.2,0.5
			c0.1,0,0.1,0,0.2,0v0.2c0,0-0.1,0-0.2,0c0,0.1-0.1,0.1,0,0.1s0.1,0,0.1,0c-0.1,0.1-0.1,0.3-0.2,0.5c0,0,0,0.1,0.1,0.1v0.2
			c0,0-0.1,0-0.2,0l0.1,0.1c0,0.1-0.1,0.1-0.1,0.2v0.1c-0.2,0-0.4,0.5-0.5,0.5c-0.1,0-0.1,0-0.1-0.1c-0.1,0-0.1,0.1-0.2,0.2v0.2
			c0.2-0.1,0.3-0.1,0.3-0.1c0,0-0.1,0-0.1,0c-0.1,0.1-0.1,0.2-0.2,0.3c0,0.1,0,0.1,0,0.2c0,0.1-0.2,0.2-0.2,0.3s-0.1,0.3-0.2,0.4
			c0,0-0.1-0.1-0.2-0.1c0,0.1,0.1,0.1,0.1,0.1c-0.1,0.1-0.2,0.4-0.4,0.5c0,0-0.1,0.1-0.1,0.2c0,0-0.1-0.1-0.1-0.1
			c-0.2,0.1-0.1,0.3,0,0.4c-0.1,0.1-0.1,0-0.1,0.2c0,0-0.1,0-0.1,0c-0.1,0-0.2,0.2-0.4,0.3c0,0.1-0.1,0.2-0.2,0.3
			c-0.1,0-0.3,0-0.3,0.2c-0.1,0-0.2,0-0.3,0.1c-0.1,0.1-0.1,0.2-0.2,0.3c-0.1,0-0.2,0-0.4,0.1c0,0-0.1,0.1-0.1,0.2
			c0,0-0.1,0.1-0.2,0.1c-0.2,0-0.6,0.2-0.7,0.2s-0.1,0-0.1-0.1v0c-0.1,0-0.2,0-0.3,0s-0.2,0.2-0.3,0.2s0-0.1-0.1-0.1
			c0,0-0.1,0.1-0.2,0.2c0-0.2-0.1-0.3-0.1-0.3c0-0.1,0.2-0.4,0.2-0.5c0-0.2,0-0.3,0-0.5c0,0-0.1-0.1-0.1-0.2l0.1,0
			c0-0.1-0.1-0.1-0.1-0.1c0.2-0.1,0.1-0.2,0.1-0.4c0-0.1-0.1-0.1-0.2-0.1c0-0.1,0.1-0.1,0.1-0.2c0-0.1,0-0.2,0-0.3
			c0-0.1-0.1-0.3-0.1-0.4s0.1-0.1,0.1-0.1c0-0.1,0-0.1,0-0.1c0-0.1-0.1-0.2,0-0.3c0-0.1,0.1-0.1,0.1-0.2s-0.1-0.3-0.2-0.4
			s0-0.3,0-0.5c0,0,0-0.1,0-0.2c0-0.4-0.1-0.2-0.1-0.3c0-0.1,0.1-0.2,0.1-0.3c0,0,0-0.1-0.1-0.1c0-0.1,0.1-0.2,0.1-0.2
			c-0.1-0.3,0.1-0.6,0.1-0.8c0.1-0.4-0.3-0.7,0-1.2c-0.1-0.3,0-0.7,0-0.8V156c0-0.1,0.1-0.1,0.1-0.1c0-0.1,0-0.1,0-0.2
			c0.1-0.1,0.1-0.2,0.1-0.3c0-0.4-0.2-0.3-0.1-1c0,0-0.1-0.1-0.2-0.2c0-0.2,0-0.3,0-0.5c-0.2-0.2,0.2-0.7-0.1-0.9c0,0,0-0.1,0.1-0.2
			c0,0-0.1-0.1-0.2-0.1c0-0.1,0.1-0.3,0.2-0.4c0-0.1-0.2-0.2-0.2-0.3c-0.1-0.2,0.2-0.6,0-0.7c0-0.1,0-0.4,0-0.6c0,0-0.1-0.1-0.1-0.1
			c-0.1-0.2,0-0.5,0.1-0.8c-0.1-0.1-0.2-0.1-0.2-0.2c0-0.3,0-0.7,0-1c0-0.1-0.1-0.1-0.1-0.1c-0.1-0.3-0.1-0.6-0.1-0.9
			c0-0.1,0-0.3-0.1-0.5c0,0-0.1-0.1-0.1-0.2c0-0.1,0.3-0.2,0-0.6v-0.5c0.1-0.1,0.3-0.1,0.5-0.2c0.2,0.1,0.4,0.4,0.5,0.4
			s0.1-0.1,0.3-0.1c0.1,0,0.4,0,0.5,0c0.1,0,0-0.1,0.1-0.1c0.1,0,0.1,0.1,0.2,0.1s0.1,0,0.2,0s1.3,0.5,1.5,0.6
			c0.2,0.1,0.4,0.3,0.6,0.3c1.2,0.9,2.1,2.8,2.3,4.2c0,0.4,0.3,0.9,0.1,1.3c0.1,0.2,0,0.6,0,0.8c0,0.4,0.1,0.8,0.1,1.3
			c0,0.2,0,0.4,0.1,0.6c0,0.1,0.1,0.1,0.1,0.2s0,0.2,0,0.2c-0.1-0.1-0.2,0-0.2,0c0.2,0.1,0.2,0.1,0.3,0.1c0,0,0.1,0.2,0.1,0.2
			c0,0.1-0.1,0-0.1,0.1c0.1,0.1,0.1,0.3,0.1,0.4c0,0-0.1,0-0.2,0.1c0,0.1,0,0.2,0.1,0.2c0,0,0.1-0.1,0.1-0.1c0,0,0,0.2-0.1,0.2
			c0,0.1,0.1,0.1,0.1,0.2C227.1,156.6,226.8,156.7,227,157.1z M226.3,154.8c-0.1-0.1-0.2-0.1-0.2-0.2s0.1-0.3,0.2-0.3
			c-0.1-0.1-0.1-0.2-0.2-0.2c0-0.1,0-0.1,0-0.1c0,0,0-0.1,0-0.2c0-0.2,0-0.1-0.1-0.2s0-0.2,0-0.3c-0.1-0.1-0.1-0.3-0.1-0.3
			s-0.1-0.2-0.1-0.3s0.1-0.2,0.2-0.3c-0.1,0-0.1-0.2-0.1-0.3c-0.1-0.4-0.1-1-0.2-1.4c0,0,0.1-0.1,0-0.2c-0.1-0.1-0.1-0.3-0.2-0.4
			c0,0,0-0.1,0-0.1c0-0.1-0.1-0.2-0.2-0.3c-0.1-0.1,0-0.3,0-0.3c-0.1-0.2-0.2-0.4-0.3-0.6c0-0.2,0-0.4-0.1-0.5
			c-0.1-0.2-0.3-0.5-0.4-0.6c-0.1-0.2-0.3-0.3-0.4-0.4c-0.3-0.4-0.9-0.7-1.5-1c-0.1-0.1-0.3-0.2-0.5-0.3c-0.1,0-0.2,0-0.3-0.1
			l-0.1,0c-0.3-0.1-0.7-0.1-1.1-0.1c0,0.2-0.1,0.4-0.1,0.5c0,0.1,0,0.1,0,0.1c0,0.2,0,0.4,0.1,0.5c0.2,0.6,0.3,1.6,0.4,2.3
			c0,0.2,0.2,0.5,0.2,0.7c0,0.7,0.2,1.7,0.1,2.2c0.1,0,0.1,0,0.1,0c0,0.2,0.1,0.6,0.1,0.7c0,0.1,0,0.1-0.1,0.2h-0.1
			c0,0.1,0.1,0.3,0.1,0.4c0,0.1,0,0.3,0,0.4c0.1,0.4,0.3,1.4,0.3,1.5s0,0.2,0,0.2c0,0.1-0.1,0.2-0.1,0.2c0,0.5-0.1,1.4-0.1,1.8
			c0,0.1,0,0.3,0,0.3c0,0.2-0.1,0.4-0.1,0.7c0,0.1,0,0.4-0.2,0.5c0,0.1,0,0.2,0.1,0.3c0,0.4-0.1,0.9-0.1,1.4c-0.1,0-0.3,0-0.4,0
			c0.1,0.1,0.4,0.2,0.5,0.3c-0.1,0.2-0.3,0.5-0.3,0.6c0,0.1,0.1,0.5,0.2,0.7c-0.1,0.1-0.1,0.1-0.1,0.2c0,0.1,0.1,0.2,0.1,0.3v0
			c0,0.1,0,0.2-0.1,0.3c-0.1,0-0.2,0.1-0.2,0.2c0.1,0.1,0.2,0.1,0.3,0.1c-0.1,0.1-0.2,0.1-0.2,0.2c0.1,0.1,0.1,0.5,0,0.6
			c0,0-0.1,0-0.2,0c0,0,0.1,0,0.2,0c0.1,0.1,0.1,0.2,0.1,0.3c0,0.2-0.2,0.3-0.3,0.6c0,0,0.1,0.1,0.1,0.1c-0.1,0.1-0.1,0.1-0.1,0.1
			c0.1,0,0.3,0.1,0.3,0.1c-0.1,0-0.2,0-0.2,0.1c0,0.1-0.1,0.2-0.2,0.3c0.1,0,0.3,0,0.4,0.1c-0.2,0,0.1,0,0.1,0.1v-0.2
			c0,0-0.1,0-0.2-0.1c0.1-0.1,0.3-0.3,0.4-0.3c0.3-0.1,0.8-0.4,0.9-0.4s0.1,0.1,0.1,0.1c0.1-0.1,0.1-0.2,0.2-0.2
			c-0.1-0.1,0.1-0.2,0.1-0.2c0,0,0,0,0,0c0.1-0.1,0.2-0.1,0.3-0.2c0.4-0.5,0.7-0.8,1-1.2c0-0.1,0-0.2,0-0.4c0.2,0,0.3-0.1,0.3-0.2
			c0.1-0.2,0.3-0.5,0.4-0.7c0-0.1,0-0.1,0-0.1c0.1-0.1,0.2-0.2,0.3-0.3c0-0.1-0.1-0.1-0.1-0.1c0.1-0.1,0.4-0.5,0.2-0.7
			c0.1,0,0.1,0,0.1,0c0.1-0.2,0-0.4,0.2-0.6c0,0-0.1-0.1-0.1-0.1c0.1,0,0.2-0.1,0.2-0.1c-0.3-0.2,0.1-0.5,0.2-0.6
			c0-0.1-0.1-0.1-0.1-0.1c0.1-0.4,0.2-0.7,0.2-1c-0.1-0.1-0.1-0.1-0.1-0.2c0.1-0.2,0.1-0.4,0.2-0.5c-0.2-0.1,0-0.4,0-0.5
			c-0.1-0.1-0.1-0.3,0-0.4c0-0.1,0-0.2-0.1-0.2c0-0.1,0.1-0.2,0.1-0.3c0-0.3,0.1-0.5,0.1-0.7C226.4,155.1,226.3,155.1,226.3,154.8z
			 M220.8,166.3L220.8,166.3l-0.1-0.1l0.1,0L220.8,166.3z"/>
		<path class="st5" d="M234.3,167c-0.1,0-0.3,0-0.5,0c0,0-0.1,0-0.2,0s-1.5-0.3-1.6-0.3c-0.1,0-0.1,0.1-0.2,0.1h-0.1
			c-0.1,0-0.1,0-0.3,0c-0.2,0-0.4,0-0.6,0c-0.2,0.1-0.4,0.1-0.5,0.1c0,0-0.1,0.1,0,0.1c-0.1,0-0.2,0.1-0.3,0.1h-0.1
			c-0.1,0-0.1,0-0.1,0.1c-0.2,0.1-0.6,0.3-0.7,0.3s-0.2-0.1-0.3-0.1c0,0,0-0.1,0-0.2c0,0,0.2-0.1,0.1-0.2c0.1,0,0-0.1-0.1-0.1
			c0-0.1,0.2-0.4,0.2-0.5s-0.2-0.6-0.2-0.7s0.1-0.1,0.1-0.2c0.1-0.1,0-0.2,0-0.2c0-0.1,0.1-0.2,0.1-0.2c0-0.1,0-0.1,0-0.2l0,0
			c0-0.1,0-0.1,0-0.2s0-0.2-0.1-0.2c0-0.1,0.1-0.3,0.1-0.4c-0.1-0.1-0.2-0.4-0.2-0.5c0-0.2,0.2-0.1,0.1-0.5c0,0,0.1-0.1,0.2-0.2
			c-0.1-0.1-0.2-0.3-0.1-0.5v-0.2c0,0-0.1,0-0.1,0c0-0.3,0-0.7,0-0.8c0-0.1-0.1-0.4-0.1-0.7c0-0.2,0.1-0.5,0-0.8
			c0-0.1-0.1-0.2-0.1-0.4c0-0.1,0.1-0.3,0.2-0.5c-0.1-0.1-0.2-0.1-0.2-0.2c0.3-0.6,0.1-1.2,0.2-1.7c0-0.3,0-0.8,0-1.3
			c0-0.1,0.2-0.4,0.2-0.7c0-0.1-0.1-0.4-0.1-0.6c0-0.1,0.1-0.2,0.1-0.3c0-0.2,0-0.5,0-0.7c0,0,0.1-0.1,0.1-0.2
			c0-0.1-0.1-0.2-0.1-0.4c0-0.1,0.1-0.2,0.1-0.3c0,0,0-0.1,0-0.2c0,0,0.1,0.1,0.1,0s-0.3-0.7-0.3-0.8v-0.4c0,0,0.1,0,0.2-0.1
			c0-0.1-0.1-0.1-0.2-0.2c0-0.3,0.1-0.7,0.1-1c0-0.1-0.2-0.3-0.2-0.4c0-0.1,0.1-0.4,0.2-0.5c-0.1-0.1,0-0.2-0.1-0.3
			c0-0.1,0-0.1,0-0.1c-0.1-0.1,0.1-0.4-0.1-0.6c-0.1,0-0.2,0-0.3,0c-0.1,0-0.2,0-0.2-0.1c0,0-0.1,0-0.2,0c-0.2,0-0.4-0.1-0.5-0.2
			v-0.2c0.4-0.1,0.9,0,1.3-0.1c0.1-0.3-0.1-0.4-0.1-0.6v-2.4c0.1-0.2,0.3-0.4,0.6-0.4c0.1,0,0.2,0.1,0.3,0.1s0.5,0.1,0.7,0.1
			c0.1,0,0.4-0.1,0.4-0.1c0,0.1,0,0.1,0.1,0.1c0.1,0,0.1,0,0.1-0.1c0.2,0,0.5,0,0.6,0c0.1,0,0.8,0.1,1.2,0.1l0.1,0.1
			c0.1,0,0.2,0,0.3,0c0.1,0,0,0.1,0.1,0.1c0.1,0,0.2,0,0.4,0c0.1,0,0.3-0.1,0.4-0.1c0,0.1,0.2,0.1,0.2,0.1l-0.1,0.1
			c0,0,0.1,0.1,0.1,0.1c-0.2,0-0.3,0-0.5,0.2c0,0.1,0,0.2,0.1,0.2c-0.1-0.1-0.4-0.1-0.5-0.1s-0.2,0.1-0.4,0.1
			c-0.1,0-0.2-0.1-0.3-0.1s-0.4,0.1-0.5,0.1c-0.1,0-1.4-0.1-1.5-0.1c-0.1,0-0.8,0.1-1.1,0.1c-0.1,0.1-0.2,0.3-0.2,0.4
			c0,0.1,0.1,0.5,0.1,0.7c0,0.4,0,0.8,0,1.2c0.4,0.3,1,0,1.4,0.3c0.3,0,0.7,0,1,0c0.4,0,0.7,0.1,1.1,0.2c0,0.1,0.1,0.2,0.2,0.3
			c-0.1,0-0.2,0-0.2,0c-0.1,0,0,0.1,0,0.1c-0.4-0.1-1.1-0.1-1.7-0.1c-0.1,0-0.5-0.1-0.6-0.1s-0.1,0.1-0.2,0.1s-0.3-0.1-0.5-0.1
			c-0.1,0-0.3,0.1-0.5,0.2c0,0.2-0.1,0.4-0.1,0.6l0.3,5.1c0,0.1-0.1,0.4-0.1,0.6c0,0.1,0,0.3,0,0.4c0,0.1-0.1,0.1-0.1,0.1
			c0.1,0.2,0,0.5,0,0.7c0,0.1-0.1,0.2-0.1,0.3c0,0.2,0,0.5,0,0.7c0,0.1-0.1,0.2-0.1,0.4c0,0.1,0,0.2,0,0.2c-0.1,0.4-0.1,0.9-0.1,1.3
			c0,0-0.1,0.1-0.1,0.1c0,0.4-0.2,0.6,0,0.8c0,0-0.1,0.1-0.2,0.1c0.1,0.2,0,0.5,0,0.7c0,0.1,0.1,0.2,0.1,0.3c0.1,0.4,0,0.8,0,1.3
			c0,0.2,0,0.5,0,0.7c0,0-0.1,0.1-0.1,0.2c0,0.1,0.2,0.1,0.2,0.2s-0.2,0.2-0.2,0.3c0,0.1,0.2,0.6,0.2,0.7s-0.1,0.3-0.2,0.4v1.2
			c0.2,0,0.2,0.5,0.2,0.8c0.1,0,0,0,0.1,0c0.2,0,0.5-0.3,0.8-0.2c0.1-0.2,0.4,0,0.6-0.3c0.1,0,0.1,0,0.2,0c0.1,0,0.3,0,0.4,0
			c0.5,0,1.2,0,1.3,0.1c0.1,0,0.2,0,0.3,0c0.1,0,0.1,0.1,0.2,0.1s0-0.1,0.1-0.1s0.4,0.1,0.6,0.2c0.1,0,0.1,0.1,0.2,0.2
			c0,0,0.1,0.1,0.2,0.1C234.5,166.9,234.4,167,234.3,167z"/>
		<path class="st5" d="M252.5,167.9c-0.1,0.1-0.2,0-0.3,0.1c-0.2,0.1-0.4,0.2-0.6,0.2c-0.1,0-0.4,0-0.5,0c-0.1,0-2.3-0.8-2.4-0.8
			c-0.1,0-0.2,0.1-0.2,0.1l-2.2-0.4c-0.1,0-0.1,0-0.3,0c-0.1,0-0.4,0-0.6,0.1c-0.2,0.1-0.5,0.2-0.6,0.2s-0.4-0.1-0.5-0.1
			c-0.3,0-0.4-0.3-0.4-0.5c0-0.1-0.1-0.3-0.1-0.3c0-0.1,0.1-0.2,0.1-0.2c0-0.3,0-0.6,0-0.9c0-0.8,0.2-1.6,0.3-2.4c0-0.3-0.1-1,0-1.6
			c0-0.2,0.1-0.7,0.1-1.1c0-0.5,0-1.3,0.1-1.9c0-0.3,0-0.6,0-0.9c0-0.3-0.1-0.6-0.1-0.9c0-0.1,0.1-0.2,0.1-0.3c0-0.3,0-0.5,0-0.8
			c0-0.1,0-3.1,0-3.3c0-0.4,0.1-0.8,0.1-1.2c0-0.2,0.1-0.4,0-0.6c0-0.1-0.1-0.3-0.1-0.4s0.1-0.7,0-1c0.1-0.2,0.1-0.4,0.3-0.4
			c0.1,0,0.5,0.1,0.6,0.3c0.1,0.1,0.3,0.3,0.3,0.5c0.1,0.2,0,0.5,0,0.8c0,0.2,0.1,0.5,0.1,0.6c0,0.2-0.1,0.5-0.1,0.6
			c0,0-0.1,0-0.1,0.1c0,0.3,0,0.5,0,0.8c0,0,0,0,0.1,0.1c0,0.2,0,0.6,0,0.8c0,0.1,0,0.2,0,0.3c0.3,0.7,0.1,2,0.1,5.5
			c0,0.2-0.2,0.5-0.2,0.7c0,0.1,0.1,0.6,0,0.8c0,0.4-0.1,0.8-0.1,1.3c0,0.2,0,0.5,0,0.7c0,0.1,0,0.2,0,0.3c-0.1,0.6,0.2,1.2-0.2,1.6
			c0,0.2,0,0.4,0,0.6c-0.1,0.2-0.1,0.5-0.1,0.6s0,0.2,0,0.4c0.1,0.1,0.7,0.3,0.9,0.3c0.1,0,0.1-0.1,0.2-0.1c0.1,0,0.3,0.1,0.5,0.1
			c0.1,0.3,0.7,0,1,0.3l0.1-0.1c0.4,0.1,1.2,0.3,1.3,0.3c0.1,0,0,0,0.1,0c0.2,0,1.2,0.5,1.3,0.5c0.4,0.1,1.3,0.3,1.4,0.3
			s0.2-0.1,0.3-0.1c0.1,0,0.2,0.4,0.5,0.5C252.7,167.6,252.6,167.8,252.5,167.9z"/>
		<path class="st5" d="M264.1,153.8c-0.1,0.4-0.2,0.9-0.3,1.4c-0.1,0.1-0.2,0.1-0.3,0.2c0.1,0.3-0.3,0.6-0.3,0.8
			c-0.1,0.2-0.2,0.5-0.3,0.7c-0.1,0.1-0.2,0.2-0.3,0.3c-0.1,0.1-0.3,0-0.4,0.1c-0.1,0.1-0.3,0.5-0.5,0.6c-0.2,0.1-0.6,0.2-0.9,0.3
			c-0.3,0.1-0.8,0.3-0.9,0.3c-0.1,0-0.9,0-1,0s-0.3-0.1-0.5-0.2c-0.1,0-0.2,0-0.4,0c-0.1,0-0.1,0.1-0.2,0.1s-0.1-0.1-0.1-0.1
			c-0.5-0.1-1-0.5-1.4-0.7c-0.6-0.3-0.9-0.6-1.2-1c-0.1-0.2-0.3-0.5-0.4-0.8c-0.1-0.1-0.2-0.3-0.2-0.4c0-0.1,0-0.2,0-0.3
			c0-0.2-0.1-0.3-0.1-0.4c0-0.3,0.2-0.7,0.6-0.7c0.2,0,0.4,0.3,0.4,0.5c0.1,0.1,0,0.3,0.1,0.5c0.1,0.4,0.3,0.8,0.5,1.2
			c0.1,0.2,0.4,0.5,0.6,0.7c0.4,0.3,1.3,0.7,1.4,0.7s0.3-0.1,0.4,0c0.3,0,0.8,0.1,0.9,0.1c0.9,0,2.3-0.8,2.8-1.4
			c0.1-0.1,0.1-0.3,0.2-0.5c0-0.1,0.2-0.3,0.3-0.5c0.1-0.3,0.3-0.6,0.4-0.9c0-0.1,0-0.2,0-0.3c0-0.1,0.1-0.1,0.1-0.2
			c0-0.1,0-0.2,0-0.3c0-0.1,0-0.3,0.1-0.4c0.1-0.1,0.1-0.1,0.2-0.1c-0.3-0.2-0.4-0.5-0.2-0.7c0-0.1-0.1-0.1-0.1-0.1
			c0.1-0.3-0.1-0.8-0.3-1.3c-0.1-0.3-0.2-0.9-0.6-1.2c-0.2-0.2-0.5-0.5-0.6-0.7c-0.2-0.2-0.4-0.5-0.7-0.5c-0.1-0.1-0.4-0.2-0.5-0.2
			s0,0-0.1,0c-0.1,0-0.9-0.3-1-0.3s-0.6,0-0.8,0c-0.1,0-0.3,0.1-0.4,0.2c-0.2,0.1-0.7,0.1-1,0.3c-0.3,0.2-0.6,0.6-0.9,0.9
			c-0.1,0.1-0.2,0.3-0.2,0.5c0,0.1-0.2,0.2-0.2,0.4c0,0,0,0.1,0,0.2c0,0-0.1,0.1-0.1,0.2c-0.1,0.2-0.1,0.5-0.1,0.8
			c0,0.1-0.1,0.2-0.2,0.2c0.1,0.2,0,0.5,0,0.7c0,0-0.1,0.1-0.1,0.2c0,0.2,0.2,0.4,0,0.7c0,0,0,0,0.1,0c0,0-0.1,0.7-0.3,0.7
			c-0.1,0,0-0.1-0.1-0.1c-0.1,0-0.1,0.1-0.1,0.1c0,0-0.1,0-0.2,0s-0.2,0-0.2,0c-0.2-0.1-0.5-0.2-0.6-0.3c-0.1-0.1-0.1-0.4-0.1-0.6
			c0,0-0.1-0.1-0.1-0.2s0.2-0.7,0.3-1c0.3-1,0.2-1.7,0.8-2.8c0-0.1,0.1-0.1,0.1-0.1c0.3-0.5,0.7-1.4,1.5-1.7c0,0,0.1-0.2,0.2-0.2
			c0.5-0.1,1.5-0.4,1.6-0.4c0.8,0,1.8,0.1,2.4,0.4c0.3,0.1,0.6,0.3,1.2,0.5c0.1,0,0.2,0.2,0.4,0.3c0.2,0.1,0.5,0.3,0.7,0.4
			c0.1,0.1,0.3,0.3,0.3,0.5c0,0.1,0,0.2,0.1,0.2c0.1,0.1,0.2,0.2,0.3,0.3s0.2,0.3,0.2,0.4c0,0,0.1,0.1,0.2,0.2
			c0.1,0.2,0.2,0.3,0.1,0.5c0.1,0.1,0.2,0.4,0.3,0.5c0.1,0.3,0.1,0.6,0.1,0.9s0,0.9,0,1C264.2,152.9,264.1,153.5,264.1,153.8z
			 M253.6,153.2L253.6,153.2l-0.1,0.1h0.1L253.6,153.2z M254,152.4L254,152.4l-0.2-0.1v0.1H254z M254,152.7l-0.2,0v0H254L254,152.7z
			 M254.3,153.1L254.3,153.1l-0.2-0.1v0.1H254.3z M254.5,152.5L254.5,152.5h-0.2v0.1L254.5,152.5z M254.5,152.7l-0.2,0v0H254.5
			L254.5,152.7z"/>
		<path class="st5" d="M273.2,164.1c0,0.1-0.3,0.8-0.4,1.1c0,0.1-0.1,0.4-0.2,0.6c-0.1,0.2-0.3,0.5-0.4,0.7c0,0.2-0.3,0.3-0.4,0.4
			c0,0,0,0.1,0.1,0.1c-0.2,0.2-0.6,0.7-0.9,0.9c-0.2,0.2-1.4,0.6-1.6,0.6c-0.1,0-1,0-1.2,0c-0.1,0-1-0.4-1.2-0.4
			c-0.1,0,0,0.1-0.1,0.1c-0.1,0-0.4-0.3-0.5-0.4c-0.1-0.1-0.3-0.1-0.4-0.2c-0.2-0.1-0.3-0.4-0.4-0.5c-0.3-0.3-0.5-0.8-0.5-1.1
			c-0.1-0.2-0.1-0.4-0.2-0.7c0-0.1,0-0.3,0-0.4c0-0.1-0.1-0.2-0.1-0.3V163c0-0.1,0.1-0.2,0.1-0.3c0-0.4,0.1-0.7,0.1-1.1
			c0-0.2,0.1-0.4,0.1-0.6c0-0.2,0.1-0.7,0.2-1c0.1-0.3-0.1-0.9,0.1-1.3V156c0,0-0.1-0.1-0.1-0.2c0-0.2,0-0.4,0-0.6
			c0-0.3,0-0.7,0-1.1c0,0-0.1-0.1-0.1-0.1c0-0.2,0-0.6,0-1c0-0.2-0.2-0.6-0.2-0.6c0-0.1,0.1-0.1,0.1-0.2c0-0.3,0-0.8,0.1-1.2
			c0-0.1,0.1-0.2,0.1-0.3s-0.1-0.2-0.1-0.3c0-0.7-0.1-1.7,0-2.4c0-0.1-0.1-0.2-0.1-0.3s0.1-0.4,0.1-0.7c0.1-0.2,0-0.6,0-0.8
			c0-0.1,0.1-0.2,0.1-0.2c0.1-0.4,0.3-1.1,0.7-1.6c0.1-0.2,0.3-0.8,0.8-0.9c0.1,0,0.2-0.1,0.3-0.1c0.1,0,0,0,0.1,0s0.1-0.1,0.2-0.1
			c0.2-0.1,0.5-0.2,0.9-0.2c0.1,0,0.2,0,0.3,0c0.2,0.1,0.4,0.2,0.5,0.4c0.2,0.2,0.6,0.9,0.6,1.3c0,0.1,0,0.2-0.1,0.3
			c0,0.1,0,0.2,0.1,0.2c0,0.1,0,0.2-0.1,0.2c-0.1,0.7-0.3,1.4-0.5,1.9c-0.1,0.2-0.5,0.4-0.7,0.6c-0.1,0-0.3,0-0.5-0.1v-0.2
			c0-0.1,0.1-0.1,0.1-0.2c0-0.1,0.1-0.3,0.1-0.5c0-0.1-0.1-0.3,0-0.5c0-0.2,0.2-0.5,0.3-0.9c0-0.2,0.2-0.7,0.2-0.8
			c0-0.4-0.5-0.5-0.5-0.6c-0.3,0.2-0.7,0.4-0.9,0.7c-0.2,0.3-0.4,0.6-0.6,0.8c0,0.1-0.1,0.2-0.1,0.3c0,0.4-0.1,0.8-0.1,1.2
			c0,0.1-0.1,0.4-0.1,0.4v1.7c0,0.1,0.2,1.5,0.2,1.6s-0.1,0.5-0.2,0.8c0,0.1,0,0.2,0.1,0.3c0,0-0.1,0-0.1,0.1s0,0.1,0,0.2
			c0,0.2,0,0.6,0,0.8c0,1-0.1,1.7,0.1,2.4c0,0-0.1,0-0.1,0.1c0,0.1,0.2,0.9,0.2,1.1c0,0.1,0,1,0,1.4c0,0,0,0.1-0.1,0.2
			c0,0.2,0,0.4,0,0.7c0,0,0,0-0.1,0.1c0.1,0.7-0.1,1.5-0.1,2.1c0,0.1,0,0.4,0,0.6c0,0.2-0.2,0.7-0.2,0.9c0,0.3-0.1,0.6-0.1,0.8
			c0,0.1-0.1,0-0.1,0.1s0.1,0.1,0.1,0.1c-0.2,0.5,0,1.3-0.1,1.8c0,0.1,0,0.3,0,0.4c0.1,0.3,0.3,0.7,0.5,0.9c0.1,0.1,1.1,0.8,1.3,0.8
			c0.1,0,0.3,0,0.4,0c0.1,0,0.2,0.1,0.3,0.1c0.1,0,0.6,0,0.8,0c0,0,0.5-0.2,0.7-0.3c0,0,0.1,0,0-0.1c0-0.1,0.2-0.1,0.3-0.2l0.2,0
			c0.1,0,0-0.1,0.1-0.1c0.1-0.1,0.2-0.1,0.3-0.2c0.1-0.1,0.1-0.4,0.2-0.6c0.1-0.2,0.4-0.4,0.5-0.6c0.1-0.2,0.2-0.6,0.3-0.9
			c0,0,0-0.1,0-0.2c0.1-0.1,0.2-0.1,0.2-0.3c0-0.1-0.1-0.3-0.1-0.4c0-0.5,0-1.1-0.1-1.6c0-0.1-0.1-0.3-0.2-0.4c0,0,0,0,0.1-0.1
			c-0.2-0.1-0.2-0.4-0.3-0.6c-0.1-0.1,0-0.5-0.1-0.7c-0.1-0.1-0.2-0.2-0.3-0.3c0-0.3,0.1-0.4,0.1-0.5c0,0,0-0.1,0.2-0.1
			c0.1,0,0.1,0.1,0.1,0.1c0,0.3,0.3,0.4,0.5,0.5c0.1,0.3,0.4,0.6,0.5,0.9c0.1,0.2,0.3,0.5,0.4,0.8c0,0.1,0.1,0.5,0.2,0.7
			c0,0,0,0,0,0.1c0,0.1,0.1,0.1,0.2,0.2V164.1z"/>
		<path class="st5" d="M279.8,155.3c0,0.1-0.1,0.1-0.2,0.2c0,0,0,0,0.1,0.1c0,0.2-0.1,0.5,0,0.7c0,0.4-0.1,0.8,0,1.2
			c0,0.1-0.1,0.1-0.1,0.1c0,0.2-0.1,0.4-0.1,0.6c0,0.3,0,0.7-0.1,1c0,0.1-0.2,0.2-0.2,0.3c0,0.1,0.2,0.5,0.2,0.6s-0.1,0.6-0.1,0.9
			c0,0,0,0.1,0,0.2c0,0,0,0.1-0.1,0.1c0.1,0.1,0.1,0.3,0.1,0.4c0,0.2-0.1,0.4-0.1,0.6c0,0,0.1,0.1,0.1,0.2c0,0.1-0.1,0.3-0.1,0.4
			c0,0.1,0.1,0.2,0.1,0.3c0,0.3-0.1,0.7-0.1,1c0,0.1,0,0.2,0,0.4c-0.1,0.3-0.3,0.6-0.4,0.9c0,0-0.1,0.1-0.1,0.1
			c0,0.2-0.4,0.8-0.7,1.1c-0.1,0.1-0.3,0.3-0.4,0.4c0,0.1-0.2,0.1-0.3,0.1c-0.1,0-0.3,0.2-0.4,0.2s-0.1-0.1-0.1-0.1l-0.1,0.1
			c-0.1,0-0.1-0.1-0.2-0.1s-0.2,0.1-0.3,0.1c-0.1,0-0.7-0.4-0.9-0.5c-0.2-0.2-0.6-0.6-0.9-0.9c0,0-0.1-0.1-0.1-0.2
			c-0.1-0.3-0.2-0.7-0.3-1c0-0.1,0-0.2,0.1-0.3c-0.1-0.2-0.2-0.8-0.2-0.9c0-0.1,0.2-0.5,0.2-0.8c0-0.1,0-0.1,0-0.1
			c0-0.3,0-0.7,0.1-1c0.1-0.2,0.3-0.4,0.3-0.5c0,0-0.1,0-0.1-0.3c-0.1-0.1-0.3-0.3-0.3-0.4c0-0.1,0.2-0.5,0.2-0.7s0-0.4,0-0.6
			c0-0.1,0.1-0.1,0.1-0.2c0.1-0.4,0-0.9,0.2-1.4v-2.9c-0.2,0-0.3-0.6-0.3-0.6c0-0.1,0.1-0.6,0.1-0.9c0,0,0.1,0,0-1.5
			c0-0.1,0.1-0.2,0.1-0.3c0-0.1,0-0.2,0-0.3c0,0,0.1-0.1,0.1-0.1c0-0.2,0-0.4,0-0.6c0-0.1,0.1-0.2,0.1-0.2c0-0.2-0.1-0.4-0.1-0.6
			c0-0.1,0.1-0.2,0.1-0.3s-0.1-0.1-0.2-0.2c0-0.1,0.1-0.2,0-0.4c0.1,0,0.3-0.2,0.5-0.2c0.1,0,0.3,0.1,0.5,0.2c0,0,0,0.2,0,0.2
			c0,0.1,0.1,0.1,0.1,0.2s-0.2,1.4-0.2,2c0,0.1-0.1,0.3-0.1,0.4l0.3,5c0,0.1,0,1.1-0.1,1.6c-0.1,0.3-0.1,0.8-0.2,1.2
			c-0.1,0.3-0.1,0.7-0.1,1c-0.1,0.2-0.1,0.6-0.2,0.7c0,0,0,0,0.1,0c0,0.3,0,0.7-0.2,0.9c0,0.1,0.2,0.3-0.1,0.4v1.7
			c0.2,0.3,0,0.7,0,1c0.1,0.2,0.4,0.6,0.3,0.8c0.3,0.3,0.9,0.8,1,0.8c0.2,0,0.8-0.6,0.9-0.7c0,0,0.1-0.2,0.1-0.2
			c0.7-0.7,0.8-1.7,0.9-2.3c0-0.1-0.1-0.2-0.1-0.3c0-0.2,0-0.6,0.1-0.6c0.1,0,0,0.1,0.1,0.1c0-0.1,0,0,0-0.1S278,162,278,162
			c0-0.1,0-0.3,0-0.4s0.1-0.4,0.1-0.6c0-0.3,0-0.7,0-1c0-0.2,0.1-0.5,0.1-0.7c0-0.3-0.1-1.3,0.3-1.8c0-0.2,0-0.4,0-0.5
			c0-0.4,0-0.9,0.2-1.5c0-0.3,0.2-0.8,0.2-0.9s-0.2-0.5-0.2-0.6c0-0.1,0.1-0.7,0.2-1c0,0,0.1,0,0.2-0.1c0-0.1-0.1-0.1-0.1-0.2
			c0-0.1,0-0.2,0.1-0.3c0-0.1-0.1-0.3-0.1-0.4c0,0,0-0.1,0-0.2c0-0.2-0.1-0.6-0.1-0.8c0-0.3,0.1-0.6,0-1c0,0,0,0-0.1-0.1
			c0-0.4,0.2-0.8,0-1.3c0,0,0-0.1,0-0.2c-0.1-0.2-0.1-0.4,0-0.6c0-0.1-0.1-0.1-0.1-0.2s0-0.2,0-0.4c0,0,0.1-0.1,0-0.3
			c0.1-0.3,0.2-0.4,0.4-0.6c0-0.1,0.1-0.3,0.1-0.5c0.1,0,0,0.1,0.1,0.1c0.1,0,0-0.1,0.1-0.1c0.1,0,0.2,0.2,0.3,0.3c0,0-0.1,0-0.3,0
			c0,0.1-0.1,0.2,0,0.3c0,0.1,0.2,0.2,0.2,0.4c0,0.1,0,0.3-0.1,0.4c0.1,0.2,0,0.3,0.1,0.5c0,0.1,0,0.2,0,0.3
			c-0.1,0.1-0.1,0.3,0.1,0.4c0,0.1-0.2,0.3-0.2,0.5c0,0.1,0.1,0.1,0.1,0.1c0,0.1-0.1,0.1-0.1,0.2c0.2,0.3,0,0.7,0,1
			c0,0.1,0.1,0.2,0.2,0.3c-0.1,0-0.1,0.1-0.2,0.2c0,0,0.1,0.1,0.2,0.2c0,0,0,0.1,0,0.2c0,0.1,0.2,0.4,0,0.4c0.1,0.2,0.2,0.4,0.2,0.6
			c0,0.1-0.1,0.2-0.1,0.3s0,0.2,0,0.3c0,0,0,0.1-0.1,0.2c0,0,0,0.1,0,0.1c0,0.1-0.1,0.2,0,0.3c0,0.1,0,0.2-0.1,0.4
			c0.1,0.3,0.3,0.8,0.3,0.9S279.8,155.1,279.8,155.3z"/>
		<path class="st5" d="M287.1,168.9c-0.1,0-0.2,0-0.3,0s-0.2-0.2-0.3-0.2s0,0.1-0.1,0.1s-0.2-0.1-0.3-0.2c0.1,0,0.2,0,0.3,0
			c-0.1-0.1-0.2-0.1-0.3-0.1c-0.1,0-0.1-0.1-0.1,0v0c0,0-0.1-0.1-0.1-0.1c0,0,0,0,0-0.1c-0.1,0-0.2,0-0.3,0c0,0,0-0.1,0-0.2
			c-0.1,0-0.1-0.2-0.2-0.3l0,0c-0.1-0.2-0.1-0.3-0.2-0.4l0.1-0.1c-0.4-0.3-0.2-0.7-0.2-1c0-0.1-0.1-0.1-0.1-0.1c0-0.1,0-0.3,0-0.4
			c-0.1-0.7-0.3-1.4-0.4-1.9c-0.1-0.3-0.2-0.7-0.2-1c-0.1-0.4-0.3-0.9-0.3-1.3c-0.2-0.6-0.3-1.3-0.6-1.9c0-0.1-0.3-0.6-0.4-0.8
			c-0.1,0-0.1-0.1-0.2-0.1l-0.1,0.1c0.2,0.3,0,0.9,0.2,1.3c0,0.1,0,0.3-0.1,0.5c0,0.1,0.1,0.1,0.1,0.2s-0.2,0.2-0.2,0.4
			c-0.1,0.2,0.1,0.5,0.1,0.7c-0.2,0.1-0.1,0.3,0,0.4c-0.1,0.1-0.2,0.3-0.2,0.4s0.1,0.2,0.1,0.3c0,0.4-0.1,0.8,0,1.3
			c0,0.1,0.1,0.2,0,0.4c0,0,0.1,0.1,0.2,0.1c-0.4,0.4,0,1-0.4,1.3c0.1,0.1,0.1,0.2,0.1,0.3c0,0.1-0.1,0.4-0.2,0.5
			c0,0.1,0.1,0.1,0.1,0.1c0,0.2,0,0.5-0.1,0.7c0,0.1-0.1,0.2-0.2,0.2c0,0.1-0.1,0.2,0.1,0.3c0,0.2-0.1,0.4-0.1,0.5
			c-0.1-0.1-0.3-0.1-0.5-0.1l-0.1-0.1c-0.1-0.1-0.1-0.3-0.1-0.4s0.1-0.4,0.1-0.6c0-0.1,0-0.3,0-0.4c0-0.1,0.1-0.2,0.1-0.4
			c0.1-0.2,0-0.4,0-0.7c0-0.1,0.2-0.2,0.2-0.3c-0.1-0.2,0-0.5,0.1-0.7c0-0.6,0-1.3,0-1.9c0-0.1,0.1-0.4,0.1-0.6c0-0.1,0-0.2,0-0.3
			l0,0c0-0.1,0-0.9,0-1v-1.1c0-0.1-0.1-0.9-0.1-1.3c0-0.2-0.3-1-0.2-1.4c0,0,0-0.1-0.1-0.1c0-0.1-0.1-0.3-0.1-0.5
			c0-0.2,0.1-0.8,0-1.1c-0.1-0.4-0.3-0.5-0.2-1.1c-0.1-0.2-0.1-0.5,0-0.7c0.2-0.6-0.2-1.6-0.2-2.2c0-0.1,0.2-0.8,0.3-1.2
			c0-0.2,0-0.6,0.1-0.9c0,0,0,0,0-0.1c0-0.1,0.1-0.2,0.1-0.3c0-0.1,0-0.2,0.1-0.3c0-0.1,0.3-0.6,0.5-0.7c0.6,0,1.8,0,1.9,0
			c0.1,0,0.8,0.3,1.2,0.6c0.4,0.3,1.6,1.2,1.5,1.6c0.1,0.1,0.3,0.5,0.3,0.7c0,0.2,0.3,0.7,0.3,0.9c0,0.1-0.1,0.1-0.1,0.2
			c0,0.2,0,0.5,0,0.7c0,0.1-0.1,0.4-0.1,0.5c0,0,0,0.1,0,0.2c0,0.1-0.1,0.3-0.1,0.4c0,0.1-0.2,0.4-0.2,0.5s-0.2,0.2-0.3,0.4
			c0,0-0.1,0.2-0.2,0.2c-0.1,0-0.1,0-0.1-0.1c-0.1,0.2-0.2,0.3-0.3,0.4c0,0-0.1,0.2-0.1,0.2c-0.1,0.1-0.2,0.2-0.3,0.3
			c-0.3,0.3-0.7,0.4-1,0.6c0,0,0,0.1,0.1,0.1c-0.3,0.1-0.5,0-0.8,0.2c-0.1,0.1-0.1,0.2-0.1,0.3c-0.1,0-0.2,0.1-0.3,0.1
			s-0.1-0.1-0.1-0.1c0,0.2-0.1,0.3-0.1,0.4c0,0.1,0.2,0.2,0.3,0.2c0,0,0.1,0.1,0,0.2c0.2,0.2,0.4,0.3,0.6,0.5c0,0.1,0.2,0.3,0.3,0.5
			c0.1,0.1,0.1,0.3,0.1,0.4c0,0-0.1,0-0.1,0.1c0.1,0.1,0.1,0.2,0.1,0.3c0,0.1,0.1,0.1,0.2,0.2c0.1,0.1,0.1,0.3,0.2,0.5
			c0,0.1,0,0.3,0,0.5c0,0.2,0.2,0.3,0.2,0.5c0,0.1-0.2,0.5,0.2,0.7c-0.1,0.1-0.1,0.2-0.1,0.3c0,0.2,0.1,0.6,0.1,0.7s0.2,0.4,0.2,0.6
			c0,0.1,0.1,0.1,0.1,0.2c0.1,0,0.1,0,0.2-0.1c-0.3,0.1-0.3,0.1-0.3,0.3c0,0.1,0.1,0.2,0.1,0.3c0.1,0.3-0.1,0.6,0.2,0.9
			c-0.1,0-0.2,0.1-0.3,0.3c0,0,0,0,0,0.1c0.1,0,0.1-0.1,0.2-0.1c0,0.1,0.3,0.5,0.1,0.6v0.4c0,0,0.1,0,0.1,0c0,0.2,0.1,0.4,0.1,0.5
			c0,0,0,0,0,0.1c0,0,0.1,0.1,0.1,0.1c0,0.1,0.1,0.3,0.1,0.4c0.1,0.1,0.2,0.3,0.4,0.3c0.1,0,0.2,0.1,0.3,0.1
			c0.2,0.1,0.4,0.2,0.4,0.4C287.4,168.8,287.2,168.9,287.1,168.9z M286.2,151.4c0-0.3-0.1-0.7-0.1-0.8s0.1-0.1,0.1-0.1
			c-0.2-0.2-0.3-0.6-0.4-0.7c-0.5-0.7-1.4-1.1-1.8-1.3c-0.1-0.1-0.4,0-0.5,0h-0.1c-0.1,0-0.3,0-0.4,0s-0.2,0-0.2,0
			c-0.1,0-0.2,0-0.3,0.1c-0.2,0.2-0.1,0.5-0.2,0.7c-0.1,0.2-0.2,0.6-0.2,0.6c0,0.1,0.1,0.3,0.1,0.4c0,0.3-0.1,0.6-0.1,0.9
			c0,0.3,0,0.3,0,0.3c0,0.1,0.1,0.1,0.1,0.1c0,0-0.1,0.1-0.1,0.2c0.1,0.4,0.3,1.1,0.3,1.2c0,0.1,0,0.2-0.2,0.3v0.9
			c0.1,0.5,0.3,1.4,0.3,1.5c0,0.1,0,0.3-0.1,0.4c0,0.1,0,0.4,0,0.5c0.4-0.1,0.8-0.3,1-0.7c0.1,0,0.2,0,0.2,0
			c0.2-0.1,0.4-0.3,0.6-0.4c0.1-0.1,0.2-0.3,0.3-0.4c0.1,0,0.3,0,0.4-0.1c0.1,0,0.1-0.1,0.1-0.2c0.2-0.2,0.4-0.4,0.5-0.5
			c0-0.1,0-0.3,0.2-0.5c0-0.3,0.2-0.6,0.2-0.8c0-0.3,0-0.6,0-0.8c0-0.1,0.1-0.3,0.1-0.4C286.3,151.6,286.2,151.5,286.2,151.4z
			 M287.1,168.5c0,0-0.2,0.1-0.2,0.1c0.1,0,0.2,0.1,0.3,0.1C287.2,168.7,287.1,168.5,287.1,168.5z"/>
		<path class="st5" d="M297.2,166.9c-0.3,0-0.5-0.2-0.7-0.5c0,0,0-0.1,0.1-0.1c0-0.1-0.5-0.3-0.3-0.4c-0.1,0-0.6-0.4-0.2-0.6
			c0,0,0-0.1-0.1-0.1c0,0-0.1,0-0.1,0c0-0.1-0.1-0.2-0.2-0.3c0,0,0-0.1,0-0.1c-0.1-0.1-0.2-0.1-0.3-0.2c0,0,0.1-0.1,0.2-0.1
			c-0.1-0.2-0.3-0.3-0.4-0.5c-0.1-0.2-0.2-0.5-0.2-0.8c0,0-0.1,0-0.1-0.1c0-0.1,0.1-0.2,0-0.3c0-0.1-0.1-0.2-0.2-0.3
			c0-0.1,0-0.2,0-0.3h-0.1c0,0,0.1-0.1,0.1-0.2s-0.3-0.4-0.3-0.6c0-0.1,0-0.2,0-0.4c-0.1-0.1-0.1-0.1-0.2-0.2c0-0.2,0.3-0.4-0.1-0.6
			c0-0.1,0.1-0.2,0.1-0.3c0-0.1-0.2-0.5-0.3-0.7c0.1-0.3-0.1-0.8-0.1-1.2c-0.2-0.4-0.2-1-0.2-1.3c0-0.3,0-0.6,0-1
			c0,0-0.1-0.1-0.1-0.2c0.1-0.4-0.4-1.1-0.3-1.7c-0.1-0.1-0.2-0.2-0.2-0.3c0,0,0-0.1,0-0.2c-0.2-0.3,0-0.5-0.1-0.8
			c0-0.1-0.2-0.1-0.2-0.2c0-0.1,0-0.2,0-0.3c-0.1-0.2-0.2-0.4-0.1-0.5c-0.1-0.2-0.3-0.5-0.4-0.9c-0.1-0.2-0.1-0.6-0.1-0.8
			c-0.1,0-0.1-0.2-0.2-0.3c-0.3-0.1-0.7-0.2-0.8-0.2c-0.1,0-0.4,0.1-0.6,0.1c0,0,0,0,0,0.1c-0.1,0.3-0.3,0.8-0.2,1.3
			c0,0.1,0.1,0.3,0.1,0.4c0,0.1,0,0.1,0,0.1c-0.1,0.6-0.4,1.4-0.3,1.9c-0.1,0.2,0,0.5,0,0.8c0,0-0.1,0-0.1,0.2
			c0,0.1,0.1,0.2,0.1,0.3c0,0.1,0,0.4,0,0.6c0,0,0.1,0.1,0.2,0.1c-0.1,0.2-0.1,0.6-0.2,0.9c0,0.5,0,1.2-0.1,1.7
			c-0.1,0.6,0,1.4-0.1,2c0,0.2-0.1,0.5-0.2,0.8c0,0,0.1,0.1,0.1,0.1c0,0.2,0,0.5,0,0.8c0,0.1-0.1,0.3-0.1,0.5c0,0.1,0,0.2,0,0.2
			c-0.1,0.2-0.2,0.6-0.3,0.7c0,0.1,0.1,0.1,0.1,0.1v0.2c0,0.1-0.2,0.4-0.2,0.5c0,0,0.1,0,0.1,0c-0.1,0.1-0.1,0.5-0.1,0.6
			c-0.1,0.3-0.2,0.7-0.3,1.1c0,0.2,0,0.4,0,0.7c0,0.1-0.1,0.2-0.2,0.2c0,0.1,0,0.2,0,0.2c0,0.1,0,0.1,0,0.2
			c-0.1,0.1-0.2,0.2-0.3,0.3h-0.2c-0.1-0.1-0.3-0.3-0.3-0.5c0,0,0.1-0.1,0.2-0.1c0.1-0.1,0.1-0.3,0.1-0.4c0,0,0.1-0.1,0.2-0.1
			c0-0.1,0.1-0.3,0.1-0.4c0-0.1,0-0.2-0.2-0.2v-0.2c0-0.1,0.1-0.3,0.2-0.5c0-0.1,0.1-0.3,0.1-0.5c0-0.3,0-0.6,0-0.9
			c0-0.1,0.1-0.1,0.1-0.1c0-0.2,0-0.6,0-0.9c0.1-0.1,0.3-0.3,0.3-0.4c0-0.1-0.2-0.5-0.2-0.6v-3.1c0.2-0.1,0-0.3,0.1-0.4
			c0-0.1,0-0.2,0.1-0.3c-0.1-0.1-0.1-0.3-0.1-0.5c0,0,0,0,0-0.1c0.1-0.3-0.1-0.4,0.1-0.6c-0.1-0.2,0.1-0.4,0.1-0.5
			c0-0.4-0.3,0-0.1-0.9c0,0-0.1,0-0.1-0.1c0-0.1,0-0.3,0-0.5c0,0,0-0.1,0.1-0.1c0.1-0.5-0.1-1.1,0.1-1.6c-0.1-0.2,0.1-0.5,0.1-0.7
			c0.1-0.3,0.1-0.6,0.2-0.9v-1.2c-0.1,0-0.2,0.1-0.3,0.1s-0.6-0.4-0.6-0.6c0.1,0,0.2-0.1,0.3-0.1c0.3-0.3,0.1-0.4,0.4-0.4
			c0.1,0,0.3,0.1,0.4,0.1c0.1,0,0.2-0.3,0.2-0.4c0-0.1-0.2-0.7-0.2-0.8c0-0.1,0.2-0.4,0.3-0.5c0,0,0,0,0.1,0
			c-0.3-0.4-0.2-0.2-0.2-0.4c0-0.2,0.3-0.4,0.3-0.5c0-0.1,0-0.2,0-0.3c0.1-0.5,0.2-0.7,0.6-0.7c0.2,0,0.3,0.1,0.5,0.2
			c0.8,0.6,0.6,1.4,0.9,2.1c0,0,0.1,0.1,0.1,0.2c0,0.1,0,0.2,0,0.4c0,0,0.1,0.1,0.1,0.2c0,0.2,0,0.3,0,0.5c0,0.1,0.1,0.1,0.1,0.1
			c0.2,0,0.6,0.2,0.7,0.2c0.2,0,0.8-0.1,1.1,0.1c0,0-0.1,0.1,0,0.2c0,0-0.1,0.1-0.1,0.1c0,0,0.1,0.1,0.2,0.2c-0.2,0-0.4,0.1-0.6,0.1
			c-0.1,0-0.4-0.1-0.6-0.1c-0.2,0-0.4,0-0.6,0.1c0.2,0.3,0.2,0.6,0.2,0.9c0,0.1,0.2,0.4,0.2,0.6c0,0.3,0.1,0.6,0.2,0.9
			c0.2,0.6,0.4,1.1,0.4,1.7c0.1,0.5,0.4,1.4,0.5,2c0,0.1,0,0.3,0,0.5c0,0,0,0,0.1,0.1c0,0.2,0,0.4-0.1,0.6c0.1,0.1,0.1,0.4,0.1,0.6
			c0,0.1-0.1,0.2,0,0.3c0.1,0.1,0.2,0.3,0.2,0.4c0,0.2,0,0.3,0,0.5c-0.2,0.3,0.3,0.2,0,0.4c0,0.1,0,0.4,0.1,0.5
			c0,0.1,0.2,0.2,0.2,0.3c0.1,0.6,0.2,1.3,0.3,1.9c0.1,0.3,0.2,0.7,0.3,1c0.1,0.1,0.1,0.3,0.2,0.4c0.1,0.4,0.3,0.7,0.4,1
			c0.3,0.3,0.2,0.6,0.4,0.9c0,0,0,0.1,0,0.1c0,0,0.1,0,0.2,0c0.1,0.1,0.1,0.3,0.2,0.4c0,0-0.1,0-0.1,0.1c0.1,0.1,0.1,0,0.2,0.1
			c0.1-0.1,0,0.1,0,0.1c0.1,0.1,0.2,0.1,0.2,0.3c0.2,0,0.3,0.1,0.4,0.2c0,0-0.1,0-0.2,0.1c0,0.1,0.1,0.1,0.3,0.2c0,0,0.1,0,0.1,0
			C297.3,166.7,297.3,166.9,297.2,166.9z M291.6,147.5c0-0.2,0-0.4,0-0.6c0,0-0.1-0.1-0.2-0.2c0-0.1,0-0.3,0-0.4
			c0-0.1-0.2-0.5-0.3-0.5c-0.1,0.1-0.3,0.3-0.3,0.5c0,0.1,0,0.3,0,0.5c-0.3,0.3-0.3,0.3-0.3,0.5c0,0.1,0,0.4,0.1,0.5
			c0,0.1,0.2,0.4,0.3,0.4c0.2,0.1,0.6,0.2,0.7,0.2h0.2c0-0.1,0-0.1,0-0.2C291.8,148.1,291.6,147.7,291.6,147.5z"/>
	</g>
</g>
<g id="fondo_x5F_blanco" class="st0">
</g>
<g id="Logotipo_x5F_negro">
</g>
<g id="slogan2">
	<text transform="matrix(1 0 0 1 183.3334 151.3273)" class="st4 st7 st8">Historia de locura</text>
</g>
</svg>
